<?xml version="1.0" standalone="no"?>
<!DOCTYPE svg PUBLIC "-//W3C//DTD SVG 20010904//EN"
 "http://www.w3.org/TR/2001/REC-SVG-20010904/DTD/svg10.dtd">
<svg version="1.0" xmlns="http://www.w3.org/2000/svg"
 width="500.000000pt" height="500.000000pt" viewBox="0 0 500.000000 500.000000"
 preserveAspectRatio="xMidYMid meet">
<metadata>
Created by potrace 1.15, written by Peter Selinger 2001-2017
</metadata>
<g transform="translate(0.000000,500.000000) scale(0.100000,-0.100000)"
fill="#000000" stroke="none">
<path d="M362 4569 c-69 -34 -104 -71 -138 -144 l-24 -50 0 -1876 0 -1876 31
-61 c34 -69 71 -104 144 -138 l50 -24 2076 0 2076 0 61 31 c69 34 104 71 138
144 l24 50 0 1875 0 1875 -24 50 c-34 73 -69 110 -138 144 l-61 31 -2077 0
-2077 0 -61 -31z m4161 -180 c21 -6 44 -21 55 -37 16 -25 17 -134 17 -1852 0
-1718 -1 -1827 -17 -1852 -11 -16 -34 -31 -55 -37 -53 -15 -3993 -15 -4046 0
-21 6 -44 21 -55 37 -16 25 -17 134 -17 1852 0 1724 1 1827 18 1853 9 14 32
31 50 36 47 13 4001 14 4050 0z"/>
<path d="M1016 3574 c-37 -38 -37 -110 0 -148 l27 -26 1451 0 c1606 0 1483 -5
1506 65 9 26 9 44 0 70 -23 70 100 65 -1506 65 l-1451 0 -27 -26z"/>
<path d="M1016 2574 c-37 -38 -37 -110 0 -148 l27 -26 1451 0 c1606 0 1483 -5
1506 65 9 26 9 44 0 70 -23 70 100 65 -1506 65 l-1451 0 -27 -26z"/>
<path d="M1016 1574 c-37 -38 -37 -110 0 -148 l27 -26 1451 0 c1606 0 1483 -5
1506 65 9 26 9 44 0 70 -23 70 100 65 -1506 65 l-1451 0 -27 -26z"/>
</g>
</svg>
