<?xml version="1.0" standalone="no"?>
<!DOCTYPE svg PUBLIC "-//W3C//DTD SVG 20010904//EN"
 "http://www.w3.org/TR/2001/REC-SVG-20010904/DTD/svg10.dtd">
<svg version="1.0" xmlns="http://www.w3.org/2000/svg"
 width="2500.000000pt" height="2500.000000pt" viewBox="0 0 2500.000000 2500.000000"
 preserveAspectRatio="xMidYMid meet">

<g transform="translate(0.000000,2500.000000) scale(0.100000,-0.100000)"
fill="#000000" stroke="none">
<path d="M0 12500 l0 -12500 12500 0 12500 0 0 12500 0 12500 -12500 0 -12500
0 0 -12500z m24990 0 l0 -12490 -12490 0 -12490 0 0 12490 0 12490 12490 0
12490 0 0 -12490z"/>
<path d="M9041 16179 c-88 -17 -163 -79 -205 -169 l-21 -45 0 -3465 0 -3465
28 -57 c32 -64 80 -111 146 -142 l46 -21 3465 0 3465 0 57 28 c64 32 111 80
142 146 l21 46 0 3465 0 3465 -21 46 c-31 66 -78 114 -142 146 l-57 28 -3440
1 c-1892 1 -3460 -2 -3484 -7z m3490 -569 l3079 0 0 -3110 0 -3110 -3110 0
-3110 0 -2 3093 c-2 1700 -1 3100 1 3109 3 18 27 28 49 22 8 -2 1399 -4 3093
-4z"/>
<path d="M10230 14765 l0 -285 430 0 430 0 0 285 0 285 -430 0 -430 0 0 -285z"/>
<path d="M11363 14768 l2 -283 433 -3 432 -2 0 285 0 285 -434 0 -434 0 1
-282z"/>
<path d="M12780 14765 l0 -285 430 0 430 0 0 285 0 285 -430 0 -430 0 0 -285z"/>
<path d="M13917 15044 c-8 -8 -9 -507 -1 -539 l6 -25 429 0 429 0 0 285 0 285
-428 0 c-236 0 -431 -3 -435 -6z"/>
<path d="M10240 13065 l0 -865 845 0 845 0 0 849 c0 467 -3 856 -6 865 -6 14
-89 16 -845 16 l-839 0 0 -865z m1118 -4 l2 -291 -275 0 -275 0 0 293 0 292
273 -2 272 -1 3 -291z"/>
<path d="M13077 13924 c-4 -4 -7 -393 -7 -865 l0 -859 845 0 845 0 -2 863 -3
862 -836 2 c-460 2 -839 0 -842 -3z m1113 -861 l0 -293 -275 0 -275 0 0 288
c0 159 2 291 4 293 2 2 126 4 275 4 l271 0 0 -292z"/>
<path d="M12355 11644 c-571 -47 -1066 -274 -1428 -653 -330 -347 -511 -756
-543 -1228 l-7 -103 285 0 285 0 7 88 c22 265 116 512 275 721 80 104 238 254
346 327 425 289 967 358 1459 187 563 -195 950 -676 992 -1230 l7 -93 285 0
285 0 -7 108 c-59 945 -803 1714 -1796 1856 -109 16 -359 27 -445 20z"/>
</g>
</svg>
