<?xml version="1.0" standalone="no"?>
<!DOCTYPE svg PUBLIC "-//W3C//DTD SVG 20010904//EN"
 "http://www.w3.org/TR/2001/REC-SVG-20010904/DTD/svg10.dtd">
<svg version="1.0" xmlns="http://www.w3.org/2000/svg"
 width="1024.000000pt" height="214.000000pt" viewBox="0 0 1024.000000 214.000000"
 preserveAspectRatio="xMidYMid meet">
<metadata>
Created by potrace 1.15, written by Peter Selinger 2001-2017
</metadata>
<g transform="translate(0.000000,214.000000) scale(0.100000,-0.100000)"
fill="#000000" stroke="none">
<path d="M3800 1108 l0 -48 -92 0 c-50 0 -89 -2 -86 -6 7 -7 5599 -6 5606 1 3
3 -49 5 -116 5 -67 0 -122 4 -122 9 0 5 7 27 15 50 8 22 10 41 6 41 -4 0 -13
-15 -18 -32 l-10 -33 -13 33 c-6 17 -16 32 -20 32 -5 0 -2 -16 6 -35 26 -64
25 -65 -83 -64 -54 1 -89 4 -78 6 30 8 45 23 45 48 0 28 -19 45 -48 42 -19 -1
-22 -7 -22 -49 l0 -48 -160 0 -160 0 0 51 0 50 -32 -3 c-31 -3 -33 -5 -33 -43
0 -33 4 -40 25 -46 14 -4 -27 -7 -90 -7 -63 0 -106 3 -95 5 30 8 45 23 45 48
0 28 -19 45 -48 42 -19 -1 -22 -7 -22 -49 l0 -48 -182 1 c-101 1 -174 4 -163
6 30 8 45 23 45 48 0 28 -19 45 -48 42 -19 -1 -22 -7 -22 -49 l0 -48 -300 0
c-165 0 -300 4 -300 9 0 5 7 27 15 50 8 22 10 41 6 41 -4 0 -13 -15 -18 -32
l-10 -33 -13 33 c-6 17 -16 32 -20 32 -5 0 -2 -16 6 -35 29 -71 78 -65 -586
-65 l-600 0 0 51 0 50 -32 -3 c-31 -3 -33 -5 -33 -43 0 -33 4 -40 25 -46 14
-4 -154 -7 -372 -8 l-398 -1 0 51 0 50 -32 -3 c-31 -3 -33 -5 -33 -43 0 -33 4
-40 25 -46 14 -4 -27 -7 -90 -7 -63 0 -106 3 -95 5 30 8 45 23 45 48 0 28 -19
45 -48 42 -19 -1 -22 -7 -22 -49 l0 -48 -200 0 -200 0 0 51 0 50 -32 -3 c-31
-3 -33 -5 -33 -43 0 -33 4 -40 25 -46 14 -4 -27 -7 -90 -7 -63 0 -106 3 -95 5
30 8 45 23 45 48 0 28 -19 45 -48 42 -19 -1 -22 -7 -22 -49 l0 -48 -247 1
c-137 1 -239 4 -228 6 30 8 45 23 45 48 0 28 -19 45 -48 42 -19 -1 -22 -7 -22
-49z"/>
<path d="M5254 576 c-12 -32 1 -70 26 -77 14 -4 -159 -8 -385 -10 l-410 -4
395 -5 c217 -3 766 -3 1220 0 l825 5 -802 3 -803 2 0 50 c0 49 -1 50 -30 50
-17 0 -33 -6 -36 -14z"/>
</g>
</svg>
