<?xml version="1.0" standalone="no"?>
<!DOCTYPE svg PUBLIC "-//W3C//DTD SVG 20010904//EN"
 "http://www.w3.org/TR/2001/REC-SVG-20010904/DTD/svg10.dtd">
<svg version="1.0" xmlns="http://www.w3.org/2000/svg"
 width="5000.000000pt" height="5000.000000pt" viewBox="0 0 5000.000000 5000.000000"
 preserveAspectRatio="xMidYMid meet">

<g transform="translate(0.000000,5000.000000) scale(0.100000,-0.100000)"
fill="#000000" stroke="none">
<path d="M42755 36751 c-33 -15 -123 -63 -200 -106 -193 -108 -1666 -910
-1740 -948 -66 -34 -1096 -593 -1960 -1065 -302 -164 -651 -355 -775 -422
-124 -67 -234 -130 -244 -139 -28 -24 -56 -90 -56 -133 0 -21 3 -38 7 -38 3 0
36 16 72 36 150 83 491 269 560 306 41 22 97 52 125 67 28 16 83 45 121 66 39
21 133 73 210 115 77 42 176 96 220 120 44 24 100 54 125 68 62 34 131 71 225
122 44 23 85 46 90 50 6 4 51 29 100 55 50 26 182 98 295 160 113 62 246 134
295 160 159 85 200 107 210 115 6 4 54 30 109 59 54 29 114 62 135 73 20 11
59 32 86 48 28 15 82 44 120 65 39 21 120 65 180 98 61 33 135 73 165 90 30
16 78 42 105 57 114 63 192 104 220 118 17 9 41 23 55 32 14 9 68 39 120 67
82 43 349 187 505 273 259 142 372 203 440 240 44 23 109 59 145 78 36 20 87
48 113 63 53 29 51 36 -16 64 -53 22 -94 19 -162 -14z"/>
<path d="M42610 36352 c-510 -279 -1071 -585 -3050 -1662 -800 -436 -1476
-804 -1502 -818 l-46 -27 611 3 611 3 76 41 c84 45 957 521 1640 893 477 260
1895 1032 2200 1198 102 55 187 102 189 103 3 3 -78 158 -196 374 -37 69 -75
126 -83 127 -8 1 -211 -104 -450 -235z"/>
<path d="M42655 35564 c-379 -207 -976 -531 -1325 -722 -349 -190 -718 -391
-820 -447 -102 -55 -366 -200 -588 -321 l-403 -219 69 -3 69 -3 792 431 c436
237 805 439 819 450 15 10 482 267 1037 570 619 338 1019 561 1032 578 22 26
31 62 16 62 -5 0 -318 -169 -698 -376z"/>
<path d="M33915 34559 c-951 -52 -1831 -529 -2408 -1308 -329 -442 -535 -978
-602 -1561 -23 -198 -16 -596 13 -785 111 -714 415 -1320 911 -1816 507 -506
1133 -813 1871 -916 94 -13 192 -17 395 -17 290 0 400 10 645 60 939 193 1759
811 2195 1657 205 396 312 772 360 1267 5 51 9 58 40 75 l35 18 0 168 c0 253
-28 478 -91 736 -30 124 -115 386 -149 458 -160 343 -209 431 -347 632 -118
173 -188 258 -343 417 -178 183 -374 346 -550 459 l-56 35 -38 -19 -39 -19
-76 44 c-521 299 -1155 449 -1766 415z m543 -194 c330 -43 643 -134 932 -271
74 -36 153 -76 177 -90 l42 -25 -17 -35 c-15 -33 -15 -36 0 -45 9 -5 70 -44
135 -87 597 -395 1036 -1009 1218 -1706 69 -264 95 -470 95 -756 l0 -187 41
-7 c32 -5 39 -10 35 -24 -3 -9 -12 -75 -21 -145 -51 -423 -190 -830 -401
-1178 -489 -807 -1295 -1331 -2239 -1455 -179 -24 -553 -24 -725 -1 -537 73
-995 253 -1406 553 -538 392 -929 939 -1122 1569 -133 434 -166 905 -96 1355
37 235 130 551 224 763 151 338 349 625 615 893 232 233 468 408 745 552 394
206 747 304 1240 346 87 8 412 -4 528 -19z"/>
<path d="M23703 30939 c-1279 -63 -2527 -507 -3543 -1262 -542 -403 -1030
-899 -1414 -1437 -595 -835 -997 -1837 -1138 -2837 l-23 -161 -73 -36 c-46
-23 -76 -44 -81 -59 -31 -81 -46 -824 -22 -1117 49 -610 146 -1082 341 -1670
100 -300 277 -710 426 -983 42 -78 93 -171 112 -207 50 -91 171 -285 260 -415
234 -342 468 -622 777 -931 277 -277 459 -437 727 -638 l76 -57 77 30 c42 17
80 31 84 31 3 0 65 -39 136 -86 904 -599 1936 -960 3035 -1060 232 -22 805
-24 1025 -6 904 79 1704 307 2491 711 975 502 1831 1273 2429 2191 924 1416
1261 3117 944 4760 -294 1520 -1118 2881 -2326 3843 -1214 966 -2780 1472
-4320 1396z m880 -373 c82 -8 156 -17 165 -20 10 -3 75 -12 147 -21 656 -80
1458 -357 2117 -731 384 -218 729 -465 1053 -755 148 -132 440 -428 560 -569
758 -885 1253 -1976 1419 -3131 69 -477 80 -1008 30 -1509 -11 -114 -56 -410
-80 -530 -183 -908 -577 -1782 -1132 -2510 -739 -969 -1744 -1690 -2907 -2086
-488 -167 -1058 -282 -1545 -312 -153 -9 -727 -9 -865 1 -470 33 -991 137
-1460 292 -458 152 -913 370 -1390 668 -49 31 -96 60 -104 65 -11 6 -6 22 27
76 l41 68 -132 95 c-281 202 -469 364 -737 632 -1009 1011 -1609 2326 -1721
3771 -24 314 -13 799 27 1119 7 63 12 116 10 118 -1 2 -35 7 -75 12 -40 5 -74
11 -76 13 -5 6 25 190 61 368 174 871 553 1722 1087 2440 107 144 138 182 286
355 564 656 1309 1208 2121 1572 611 274 1345 463 1985 513 77 6 158 12 180
14 103 10 770 -3 908 -18z"/>
<path d="M35920 23844 c-19 -2 -91 -9 -159 -15 -319 -27 -690 -110 -1011 -226
-1302 -469 -2276 -1544 -2619 -2888 -148 -577 -166 -1186 -55 -1775 243 -1289
1056 -2365 2230 -2953 132 -66 316 -146 432 -187 41 -15 62 -28 62 -39 0 -9 5
-33 10 -53 10 -34 16 -38 73 -57 183 -60 430 -116 657 -150 233 -35 400 -44
697 -38 245 4 303 9 488 36 318 48 488 89 790 188 523 172 1002 445 1428 815
l38 33 -11 53 -10 53 131 132 c582 583 986 1347 1139 2152 79 418 92 917 34
1340 -86 622 -327 1250 -682 1770 -775 1139 -2084 1826 -3451 1813 -97 0 -192
-3 -211 -4z m410 -234 c758 -37 1416 -260 2072 -702 295 -198 667 -558 894
-865 407 -550 661 -1189 751 -1888 22 -175 26 -719 5 -885 -60 -488 -185 -905
-398 -1330 -185 -367 -402 -674 -676 -955 l-117 -120 -33 33 c-19 17 -38 32
-43 32 -6 -1 -28 -19 -50 -41 -67 -66 -229 -199 -358 -291 -830 -595 -1885
-836 -2887 -657 -200 35 -475 108 -628 166 -7 3 -20 -13 -33 -42 -12 -26 -26
-44 -32 -42 -7 3 -52 22 -101 42 -796 324 -1438 864 -1873 1575 -300 492 -482
1016 -559 1610 -25 194 -30 599 -10 807 75 778 361 1486 852 2103 200 252 518
548 799 745 601 421 1324 668 2057 704 84 5 158 9 163 9 6 1 98 -3 205 -8z"/>
<path d="M14920 21857 c-58 -24 -294 -126 -525 -226 -231 -101 -895 -389
-1475 -641 -2631 -1142 -4040 -1755 -4105 -1785 -66 -31 -2979 -1297 -3809
-1656 -337 -146 -386 -169 -433 -212 -69 -64 -116 -157 -121 -243 l-4 -64 48
21 c27 11 63 27 79 34 58 28 375 165 380 165 3 0 39 16 81 35 41 19 77 35 79
35 3 0 35 14 72 31 38 17 90 40 118 51 27 11 74 31 105 45 59 27 174 78 280
123 97 41 332 143 440 190 52 23 142 62 200 87 58 24 128 55 155 67 28 13 111
49 185 81 164 69 180 76 250 108 30 13 120 53 200 87 350 150 449 193 508 221
35 16 69 29 75 29 7 0 17 4 23 9 5 5 90 43 189 86 99 42 208 90 243 106 35 16
67 29 71 29 5 0 36 14 69 30 34 17 64 30 67 30 3 0 32 12 63 26 81 37 93 42
337 147 121 52 308 133 415 180 107 46 296 128 420 182 124 53 248 107 275
120 28 12 79 35 115 50 36 15 99 42 140 60 41 18 125 54 185 80 61 26 117 51
126 55 9 5 61 27 115 50 54 23 127 54 162 71 35 16 69 29 75 29 7 0 17 4 22 9
6 4 107 50 225 100 118 51 229 99 245 106 33 16 137 61 440 192 210 90 258
111 328 142 108 50 252 111 259 111 5 0 32 12 61 26 28 14 95 43 147 66 52 22
113 48 135 58 22 10 92 41 155 68 531 230 660 285 695 301 22 10 105 46 185
80 218 94 260 112 325 141 33 15 121 53 195 85 74 32 158 68 185 80 28 12 84
37 125 55 41 17 99 42 128 56 29 13 55 24 58 24 4 0 40 16 81 35 41 19 78 35
83 35 4 0 35 14 68 30 34 17 64 30 67 30 3 0 32 12 63 26 98 45 124 56 217 95
50 21 91 44 93 51 4 20 -78 76 -143 99 -36 12 -81 19 -132 19 -69 0 -90 -5
-183 -43z"/>
<path d="M15190 21356 c-98 -43 -834 -363 -1210 -526 -162 -71 -569 -247 -905
-393 -335 -145 -779 -338 -985 -427 -206 -89 -478 -207 -605 -262 -266 -116
-728 -316 -830 -360 -38 -17 -88 -38 -110 -48 -37 -17 -797 -346 -1055 -458
-63 -27 -491 -212 -950 -412 -459 -199 -1154 -501 -1545 -670 -390 -169 -883
-383 -1095 -475 -212 -92 -484 -210 -605 -262 -121 -53 -269 -117 -330 -144
-60 -26 -177 -77 -260 -113 -133 -58 -150 -68 -148 -88 1 -19 377 -893 438
-1019 l17 -36 207 90 c113 49 370 160 571 247 380 165 685 297 1025 445 110
48 245 106 300 130 148 64 725 314 760 330 17 7 152 66 300 130 149 64 284
122 300 129 17 8 80 35 140 61 61 26 128 55 150 65 22 10 162 71 310 135 149
64 371 161 495 215 124 54 272 118 330 143 58 25 211 91 340 147 129 56 300
130 380 165 80 35 235 102 345 150 110 48 245 107 300 130 55 23 136 58 180
78 112 49 828 359 955 414 58 25 119 51 135 59 40 17 265 115 390 169 55 23
174 75 265 115 338 147 439 190 447 190 23 0 92 87 1058 1320 382 487 424 537
525 623 30 25 53 46 50 46 -3 0 -39 -15 -80 -33z"/>
<path d="M12390 18574 c-498 -217 -993 -432 -1100 -478 -205 -89 -636 -276
-1460 -633 -272 -119 -630 -274 -795 -345 -165 -72 -538 -234 -830 -360 -291
-127 -665 -289 -830 -360 -165 -72 -487 -211 -715 -310 -402 -175 -694 -302
-1212 -526 -192 -83 -245 -109 -235 -118 18 -18 115 -44 161 -44 39 0 539 214
3750 1602 330 142 622 267 650 277 114 39 3353 1454 3374 1474 26 24 162 200
162 210 0 4 -3 7 -7 6 -5 -1 -415 -178 -913 -395z"/>
<path d="M37990 14197 c0 -5 29 -143 60 -281 12 -54 23 -106 25 -115 2 -10 10
-46 19 -82 8 -35 31 -140 51 -234 20 -93 43 -198 51 -233 8 -35 21 -93 28
-130 8 -37 30 -139 49 -227 41 -180 142 -643 218 -990 27 -126 54 -248 59
-270 11 -50 42 -192 120 -550 34 -154 75 -341 91 -415 17 -74 37 -164 44 -200
8 -36 28 -126 44 -200 17 -74 56 -250 86 -390 30 -140 62 -284 70 -320 46
-208 57 -256 80 -365 15 -66 35 -156 45 -200 10 -44 22 -98 25 -120 4 -22 13
-66 21 -97 8 -32 25 -108 38 -170 14 -62 39 -178 56 -258 18 -80 38 -172 45
-205 7 -33 24 -112 38 -175 14 -63 67 -302 117 -530 50 -228 104 -473 120
-543 17 -71 30 -137 30 -148 0 -29 14 -23 53 20 33 36 67 119 67 160 0 9 -27
135 -59 281 -70 312 -539 2461 -640 2930 -92 425 -338 1548 -775 3540 -42 190
-81 358 -88 374 -17 43 -65 94 -107 115 -40 20 -81 35 -81 28z"/>
<path d="M37817 13940 c-5 -67 -41 -205 -172 -660 -259 -900 -246 -848 -230
-917 18 -79 1183 -5388 1235 -5628 22 -104 45 -200 50 -211 l9 -22 143 30
c224 46 580 126 585 131 2 3 0 22 -6 44 -6 21 -56 245 -112 498 -55 253 -115
530 -134 615 -19 85 -151 691 -295 1345 -144 655 -349 1591 -456 2080 -108
490 -249 1135 -315 1435 -66 300 -145 660 -176 800 -31 140 -70 320 -88 400
l-31 145 -7 -85z"/>
<path d="M37276 11997 c-15 -48 -27 -100 -28 -115 0 -31 488 -2277 502 -2307
8 -16 489 -2186 625 -2811 21 -100 40 -161 54 -181 24 -32 79 -69 88 -59 4 3
-3 50 -15 103 -12 54 -65 294 -117 533 -52 239 -133 608 -180 820 -46 212
-123 561 -170 775 -47 215 -123 563 -170 775 -46 212 -109 498 -139 635 -54
245 -193 879 -282 1285 -25 113 -65 297 -90 410 -24 113 -46 210 -48 215 -2 6
-15 -29 -30 -78z"/>
</g>
</svg>
