<?xml version="1.0" standalone="no"?>
<!DOCTYPE svg PUBLIC "-//W3C//DTD SVG 20010904//EN"
 "http://www.w3.org/TR/2001/REC-SVG-20010904/DTD/svg10.dtd">
<svg version="1.0" xmlns="http://www.w3.org/2000/svg"
 width="6000.000000pt" height="6000.000000pt" viewBox="0 0 6000.000000 6000.000000"
 preserveAspectRatio="xMidYMid meet">

<g transform="translate(0.000000,6000.000000) scale(0.100000,-0.100000)"
fill="#000000" stroke="none">
<path d="M0 30000 l0 -30000 30000 0 30000 0 0 30000 0 30000 -30000 0 -30000
0 0 -30000z m30328 21231 c18 -1 31 -5 27 -10 -9 -15 6 -19 75 -22 75 -3 90
-6 90 -24 0 -8 20 -14 55 -17 30 -3 58 -7 61 -11 13 -13 -9 -27 -42 -27 -24 0
-34 -5 -34 -15 0 -17 76 -22 82 -5 2 6 20 13 41 17 34 5 37 4 37 -18 0 -19 2
-21 10 -9 6 10 10 11 10 3 0 -8 13 -13 33 -13 17 0 39 -5 47 -10 13 -8 12 -10
-2 -10 -36 0 -17 -20 20 -21 47 -1 77 -12 77 -30 0 -8 8 -13 18 -13 9 1 17 -2
17 -7 0 -5 -7 -9 -15 -9 -8 0 -15 -4 -15 -8 0 -8 22 -12 83 -12 32 -1 37 -4
37 -25 0 -18 4 -22 21 -18 16 4 20 2 17 -12 -2 -14 6 -21 32 -28 43 -11 48
-16 30 -27 -12 -8 -11 -10 5 -11 11 -1 27 -2 35 -3 8 0 14 -9 12 -18 -2 -13 4
-18 18 -18 13 0 24 -8 27 -20 3 -11 13 -20 23 -20 12 0 20 -9 22 -22 2 -19 8
-22 30 -20 23 3 30 -2 38 -24 8 -19 7 -30 -2 -41 -10 -13 -8 -14 17 -11 25 2
31 -1 33 -19 2 -14 8 -20 17 -17 9 4 16 -3 21 -20 4 -16 13 -26 24 -26 14 0
18 -7 18 -30 -1 -17 2 -33 5 -37 4 -3 7 2 7 11 0 21 24 16 26 -5 0 -8 2 -25 2
-38 2 -20 4 -21 17 -11 13 11 15 8 15 -19 0 -26 4 -31 25 -31 23 0 25 -4 25
-44 0 -35 3 -44 17 -42 11 0 18 -6 18 -19 0 -13 7 -20 20 -20 16 0 21 -8 23
-42 2 -30 7 -40 16 -37 8 3 16 -4 19 -15 3 -12 0 -21 -6 -22 -8 0 -8 -2 1 -6
6 -2 12 -13 12 -23 0 -11 7 -17 18 -16 14 1 17 -8 17 -54 0 -58 13 -115 24
-105 3 4 11 -13 17 -37 7 -26 12 -34 13 -20 1 12 5 22 10 22 11 0 21 -36 21
-80 0 -50 -10 -80 -26 -80 -15 0 -20 -54 -8 -84 11 -28 46 22 39 55 -4 18 -1
28 8 32 11 4 16 -12 21 -76 3 -45 6 -102 6 -126 0 -33 3 -42 14 -38 9 4 16 -5
20 -26 4 -17 6 -1322 6 -2898 -1 -1577 2 -2879 6 -2893 4 -18 12 -26 28 -25
16 1 17 2 4 6 -10 2 -18 9 -18 14 0 5 1140 9 2935 9 2604 0 2934 -2 2929 -15
-4 -10 0 -15 15 -15 15 0 21 -6 21 -22 l0 -21 18 21 c18 21 34 22 130 13 8 -1
12 -11 10 -28 -2 -16 2 -28 11 -31 9 -3 11 0 6 8 -5 8 -3 11 6 8 8 -3 13 -11
11 -17 -1 -6 9 -11 23 -11 14 0 25 -5 25 -11 0 -5 5 -7 10 -4 6 3 10 11 10 16
0 6 -4 7 -10 4 -5 -3 -10 1 -10 9 0 11 9 16 26 16 21 0 24 -3 15 -14 -9 -11
-1 -14 45 -18 35 -3 61 -11 68 -20 6 -8 28 -18 50 -22 35 -7 37 -8 20 -21 -18
-14 -18 -14 1 -16 11 -1 37 -1 58 0 31 2 37 0 37 -17 0 -14 -8 -22 -22 -25
-17 -3 -14 -4 7 -4 70 0 85 -3 85 -18 0 -10 10 -15 31 -15 22 0 32 -5 36 -20
4 -14 14 -20 32 -20 34 0 44 -9 30 -27 -9 -10 -6 -13 15 -13 25 0 32 -15 27
-57 -1 -7 3 -13 9 -13 5 0 9 3 8 8 -2 4 2 7 7 7 6 0 9 -6 7 -13 -3 -11 6 -13
39 -10 41 4 42 3 160 -114 66 -65 119 -122 119 -128 0 -5 7 -10 15 -10 8 0 15
-4 15 -9 0 -5 2 -16 5 -23 4 -9 -2 -14 -14 -14 -11 0 -18 4 -15 8 2 4 -4 20
-14 37 -14 23 -21 28 -30 19 -15 -15 -16 -74 -2 -83 6 -3 10 0 10 7 0 10 2 10
9 -1 5 -7 14 -11 20 -7 6 4 9 1 5 -7 -3 -10 5 -18 27 -26 40 -14 37 -14 42 7
2 9 8 -2 12 -26 7 -37 10 -42 28 -36 17 5 19 3 15 -20 -4 -20 -1 -26 13 -26
13 0 19 -11 25 -46 5 -33 10 -44 20 -40 8 3 14 -1 14 -9 0 -8 9 -19 20 -25 13
-7 20 -21 20 -39 0 -16 11 -40 25 -55 23 -25 30 -47 26 -88 -2 -12 3 -16 12
-12 24 9 28 -55 6 -79 -10 -11 -16 -24 -13 -29 9 -14 21 -9 27 12 5 20 36 28
38 10 1 -5 3 -14 4 -20 1 -5 4 -43 5 -82 1 -40 4 -65 7 -55 9 34 20 16 27 -44
3 -34 6 -80 6 -103 0 -29 3 -37 10 -26 5 8 12 11 16 8 3 -4 8 -105 10 -225 4
-237 -3 -384 -17 -345 -11 30 -21 28 -19 -5 3 -48 -3 -50 -10 -3 -7 43 -7 42
-8 -22 -1 -36 1 -68 6 -70 4 -1 4 -30 1 -63 l-5 -60 -13 33 c-11 27 -16 31
-28 21 -12 -11 -12 -14 1 -21 30 -17 18 -148 -13 -148 -29 0 -42 -16 -47 -58
-4 -39 8 -58 19 -29 3 7 6 5 6 -5 1 -10 -6 -18 -14 -18 -13 0 -21 -33 -16 -63
1 -5 -7 -11 -18 -14 -15 -4 -22 -17 -27 -48 -4 -32 -10 -42 -20 -38 -10 4 -14
-3 -14 -20 0 -19 -6 -26 -22 -29 -19 -2 -23 -9 -23 -38 0 -25 -5 -36 -17 -38
-10 -2 -18 -12 -18 -23 0 -10 -9 -27 -20 -36 -11 -10 -20 -25 -20 -35 0 -25
-21 -34 -35 -15 -7 10 -18 17 -26 17 -8 0 -10 3 -4 8 6 4 11 13 12 20 4 17
-24 15 -31 -3 -3 -8 -13 -15 -21 -15 -15 0 -15 -1 0 -16 9 -9 27 -16 41 -16
33 0 33 -41 -1 -72 -14 -13 -25 -28 -25 -33 0 -6 -15 -14 -32 -19 -28 -8 -34
-15 -36 -42 -2 -24 -10 -36 -28 -42 -13 -5 -24 -14 -24 -20 0 -5 -7 -10 -16
-10 -9 0 -18 -9 -21 -20 -3 -10 -14 -22 -24 -25 -10 -4 -19 -13 -19 -20 0 -8
-15 -17 -35 -21 -25 -4 -35 -11 -35 -25 0 -11 -5 -19 -11 -19 -5 0 -7 -5 -4
-10 8 -14 -37 -30 -51 -19 -13 11 -39 -15 -30 -30 3 -5 -7 -12 -24 -16 -16 -4
-33 -11 -36 -16 -3 -6 -17 -14 -30 -19 -13 -5 -24 -13 -23 -17 4 -23 -4 -30
-35 -31 -27 -1 -36 3 -41 18 -7 23 -35 27 -35 6 0 -8 9 -18 21 -21 26 -9 21
-39 -9 -43 -12 -2 -22 -10 -22 -18 0 -9 -11 -14 -34 -14 -19 0 -38 -5 -41 -11
-4 -6 -13 -8 -21 -5 -8 3 -11 0 -8 -9 4 -10 -7 -16 -45 -21 -32 -4 -51 -11
-51 -20 0 -7 -15 -16 -34 -19 -27 -6 -39 -2 -55 14 -14 14 -34 21 -61 21 -52
0 -54 -25 -3 -37 65 -15 50 -30 -37 -38 -58 -5 -80 -11 -80 -21 0 -8 -1 -15
-2 -16 -2 0 -108 -4 -237 -7 -174 -4 -235 -9 -239 -18 -5 -17 -5442 -19 -5442
-3 0 7 904 11 2678 13 l2677 2 -2716 2 c-2706 3 -2717 3 -2722 -17 -3 -13 -11
-18 -20 -14 -12 4 -19 -5 -27 -33 -8 -27 -10 -791 -8 -2748 l3 -2710 3 2721
c2 2845 1 2750 41 2725 9 -6 11 -684 9 -2878 -2 -1579 -7 -2875 -11 -2879 -4
-5 -12 -2 -17 6 -9 13 -10 13 -10 0 0 -13 -1 -13 -10 0 -8 13 -10 12 -10 -2 0
-10 5 -18 10 -18 6 0 10 -24 9 -52 -1 -56 -15 -166 -18 -134 -2 33 -13 9 -16
-35 -8 -97 -17 -139 -31 -139 -9 0 -14 -12 -15 -37 -1 -21 -4 -49 -8 -63 -7
-24 -7 -24 -19 -5 -10 17 -12 13 -12 -30 -1 -49 -18 -112 -19 -72 -1 10 -9 17
-21 17 -15 0 -20 -7 -20 -25 0 -14 -4 -25 -10 -25 -5 0 -10 -21 -10 -47 0 -65
-8 -90 -31 -96 -10 -3 -19 -12 -19 -21 0 -9 -7 -16 -15 -16 -8 0 -15 -9 -15
-19 0 -11 -5 -23 -10 -26 -6 -4 -8 -11 -4 -16 3 -6 -3 -13 -14 -16 -13 -3 -19
-11 -17 -24 5 -26 -10 -32 -30 -13 -9 9 -19 13 -23 9 -4 -4 3 -15 16 -25 22
-18 22 -19 2 -33 -11 -7 -17 -17 -13 -20 3 -4 -1 -7 -10 -7 -8 0 -19 -9 -22
-20 -3 -11 -10 -20 -15 -20 -5 0 -15 -12 -22 -27 -9 -17 -20 -27 -31 -25 -12
2 -17 -4 -17 -23 0 -15 -4 -24 -10 -20 -6 3 -15 -6 -20 -20 -8 -20 -15 -25
-30 -20 -15 5 -20 2 -21 -12 0 -14 -2 -14 -6 -3 -7 16 -44 49 -55 50 -5 0 -8
-7 -8 -15 0 -9 9 -15 21 -15 19 0 21 -4 16 -36 -7 -44 -15 -53 -27 -34 -7 12
-11 8 -16 -17 -6 -30 -37 -50 -71 -44 -8 1 -10 -4 -7 -14 5 -11 0 -18 -15 -22
-11 -3 -21 -11 -21 -19 0 -17 -9 -22 -58 -30 -38 -6 -40 -5 -35 15 4 16 1 21
-16 21 -11 0 -21 -5 -21 -11 0 -8 -5 -7 -16 2 -17 14 -78 13 -103 -1 -10 -5
-10 -9 -2 -14 6 -4 11 -2 11 3 0 14 32 14 67 -1 15 -6 34 -10 41 -9 6 1 12 -3
12 -9 0 -5 9 -10 21 -10 12 0 17 -4 14 -11 -4 -6 -13 -8 -21 -5 -8 3 -14 1
-14 -4 0 -6 5 -10 10 -10 25 0 6 -20 -25 -26 -19 -3 -35 -11 -35 -16 0 -6 -6
-8 -14 -5 -8 3 -17 -1 -20 -10 -4 -9 -13 -13 -22 -9 -11 4 -18 -1 -21 -14 -4
-14 -17 -22 -45 -26 -22 -4 -45 -13 -53 -20 -7 -8 -25 -14 -39 -14 -19 0 -26
-5 -26 -20 0 -14 -7 -20 -22 -21 -13 -1 -27 -2 -33 -4 -5 -1 -22 -3 -37 -3
-16 -1 -28 -8 -28 -16 0 -13 -48 -26 -102 -26 -18 0 -28 -5 -28 -15 0 -8 -6
-16 -12 -16 -7 -1 -25 -3 -40 -5 -21 -2 -28 2 -29 14 -1 15 -2 15 -6 0 -4 -15
-16 -18 -66 -19 -60 0 -120 -14 -87 -20 36 -6 -177 -14 -311 -11 l-147 3 -6
29 c-4 22 -11 30 -26 30 -12 0 -20 -7 -20 -16 0 -14 -10 -16 -71 -12 -39 3
-76 11 -82 17 -8 8 -8 11 1 11 7 0 12 5 12 10 0 6 -35 10 -85 10 -69 0 -85 3
-85 15 0 14 -22 20 -62 16 -9 -1 -23 8 -31 20 -9 13 -26 22 -42 22 -17 0 -25
4 -21 12 4 12 -48 29 -94 30 -17 0 -42 44 -35 63 3 7 -1 12 -8 11 -26 -3 -37
2 -37 16 0 8 -7 15 -15 15 -9 0 -12 -6 -9 -15 4 -10 0 -15 -12 -15 -37 0 -62
12 -67 31 -3 11 -14 19 -26 19 -12 0 -21 6 -21 15 0 8 -8 15 -17 15 -10 0 -26
7 -36 15 -18 13 -18 14 3 25 12 6 28 9 36 6 26 -10 14 19 -14 32 -24 11 -29
10 -44 -8 -21 -25 -48 -26 -48 -1 0 12 -7 18 -17 17 -26 -2 -29 34 -4 41 25 6
27 21 5 30 -11 4 -22 -1 -31 -13 -12 -16 -15 -17 -23 -4 -5 8 -10 18 -10 21 0
4 -8 6 -17 5 -11 0 -17 6 -17 17 1 11 -5 17 -18 17 -11 0 -22 8 -25 19 -3 11
-13 21 -24 24 -11 3 -19 14 -19 26 0 14 -6 21 -20 21 -13 0 -20 7 -20 20 0 11
-7 20 -15 20 -8 0 -15 7 -15 16 0 8 5 12 10 9 19 -12 24 27 5 41 -21 16 -37
10 -28 -11 3 -10 -1 -15 -11 -15 -9 0 -20 8 -23 18 -4 9 -15 29 -26 44 -11 15
-17 34 -14 43 5 11 2 15 -11 13 -13 -2 -19 7 -26 40 -7 30 -15 42 -28 42 -13
0 -18 8 -18 31 0 21 -6 32 -17 35 -12 3 -19 16 -20 36 -1 17 -7 36 -13 42 -8
8 -9 6 -5 -6 4 -10 3 -18 -3 -18 -10 0 -22 46 -22 86 0 27 -20 33 -21 7 -1
-34 -18 19 -18 60 -1 20 -6 37 -12 37 -5 0 -7 -4 -4 -10 3 -5 2 -10 -3 -10
-13 0 -22 79 -11 101 5 11 14 29 20 40 7 14 7 25 1 31 -16 16 -34 -1 -26 -25
3 -12 3 -19 -1 -15 -5 4 -14 0 -21 -10 -13 -16 -13 -16 -15 3 -2 11 -3 27 -5
35 -1 8 -3 47 -4 85 -1 39 -4 62 -7 53 -9 -35 -20 -17 -27 43 -3 35 -1 80 6
107 9 35 9 47 0 50 -7 2 -12 13 -13 25 0 21 -1 21 -12 -3 -9 -22 -12 -12 -18
70 -4 52 -7 1349 -8 2883 -1 2773 -1 2787 19 2787 15 0 20 7 20 26 0 20 -4 25
-16 20 -10 -4 -18 0 -21 13 -4 17 -16 20 -91 23 -48 2 -1318 1 -2822 -2
l-2735 -5 2703 -3 c1793 -1 2702 -5 2702 -12 0 -7 -914 -10 -2723 -10 l-2723
0 4 36 4 36 -53 -7 c-30 -4 -61 -13 -70 -21 -17 -16 -46 -17 -138 -8 -50 6
-61 10 -61 25 0 11 -6 19 -12 19 -9 0 -8 4 2 10 12 8 9 10 -12 10 -16 0 -28
-4 -28 -10 0 -5 -25 -10 -55 -10 -39 0 -54 4 -52 13 1 7 -11 13 -30 15 -19 2
-33 9 -33 17 0 16 -22 25 -60 25 -52 0 -91 12 -86 26 4 10 -5 14 -33 14 -37 0
-68 19 -54 33 3 4 -3 8 -15 8 -44 3 -79 17 -86 34 -3 9 -18 15 -35 15 -33 0
-47 15 -43 45 2 15 1 17 -7 6 -10 -16 -46 -7 -36 9 4 6 -5 10 -19 10 -24 0
-30 8 -27 37 1 7 -7 9 -19 6 -15 -4 -20 0 -20 14 0 14 -10 22 -37 29 -23 5
-38 15 -38 24 0 8 -10 16 -22 18 -19 3 -23 10 -23 41 0 38 0 38 -36 35 -28 -2
-37 2 -41 16 -3 10 -14 21 -25 24 -18 4 -20 10 -15 40 5 34 4 36 -21 37 -15 1
-32 1 -39 0 -7 -1 -15 10 -19 24 -3 14 -12 25 -19 25 -13 0 -28 35 -26 58 1 8
-6 12 -16 10 -13 -2 -18 4 -18 22 -1 20 -5 24 -24 22 -18 -3 -22 0 -18 12 4 9
2 26 -3 38 -5 13 -9 17 -9 11 -1 -18 -21 -16 -21 2 0 9 9 15 25 15 16 0 25 6
25 15 0 8 -4 15 -9 15 -5 0 -11 10 -13 23 -2 12 -9 21 -15 20 -6 -1 -17 4 -23
12 -7 8 -19 15 -26 15 -8 0 -14 7 -14 16 0 10 -6 14 -15 10 -9 -3 -16 1 -16 9
-1 8 -3 20 -4 25 -1 6 -3 19 -4 30 -1 14 -7 20 -18 18 -19 -3 -20 0 -22 67 -1
27 -4 36 -10 26 -7 -11 -11 -10 -20 7 -16 30 -14 92 3 92 8 0 17 7 20 16 7 17
-2 64 -13 64 -8 0 -31 -50 -31 -68 0 -7 -6 -12 -12 -10 -8 3 -14 26 -16 55 -3
44 0 51 18 56 17 4 20 13 20 66 0 48 -3 61 -15 61 -8 0 -15 -8 -15 -17 0 -15
-2 -16 -10 -3 -5 8 -12 11 -16 7 -4 -3 -3 -12 3 -19 13 -19 10 -81 -4 -85 -10
-4 -13 12 -13 56 0 33 -5 63 -10 66 -6 4 -8 40 -5 93 3 58 2 82 -5 72 -5 -8
-10 -35 -11 -60 l-2 -45 -7 55 c-10 70 -12 359 -3 469 5 63 9 80 17 70 6 -8
17 -15 24 -17 16 -3 17 65 1 70 -8 3 -10 24 -5 71 7 57 10 66 22 56 16 -13 18
5 14 94 -2 42 1 49 19 54 13 3 21 13 21 27 0 39 12 67 26 62 11 -4 14 6 14 42
0 90 37 96 47 8 3 -25 9 -46 13 -46 8 0 8 9 -5 121 -7 63 -6 66 15 72 13 3 19
10 15 17 -4 6 -4 18 -1 27 5 12 9 13 20 4 12 -10 15 -8 18 11 2 14 9 23 19 22
16 -1 20 10 20 60 0 23 3 27 19 23 17 -4 20 0 20 26 0 38 12 59 31 55 8 -2 15
7 17 20 4 27 22 29 22 2 0 -17 5 -19 25 -14 15 4 25 2 25 -5 0 -6 -7 -8 -15
-5 -11 5 -15 -1 -15 -20 0 -16 6 -26 14 -26 8 0 17 -6 19 -12 3 -8 6 -6 6 5 1
9 5 17 11 17 5 0 13 19 16 41 4 23 15 49 25 57 9 8 15 20 13 27 -8 20 -52 -5
-67 -37 -14 -32 -32 -36 -45 -10 -11 21 -5 42 13 42 8 0 17 9 20 20 3 11 15
20 25 20 12 0 20 8 22 23 4 27 31 29 37 2 7 -38 41 -42 41 -4 0 12 -7 19 -20
19 -21 0 -24 10 -14 48 4 14 12 21 20 18 7 -3 14 0 16 5 5 15 38 0 38 -17 0
-8 7 -14 15 -14 9 0 20 -10 25 -22 6 -16 9 -18 9 -6 1 9 7 19 14 21 6 3 -3 8
-20 12 -18 4 -30 12 -27 16 3 5 -5 18 -18 29 l-23 19 33 7 c22 4 32 12 32 25
0 11 9 19 23 21 12 2 22 10 22 18 0 8 9 15 20 15 11 0 21 8 23 17 2 11 17 20
38 24 24 4 34 11 32 23 -2 10 5 17 18 19 12 2 24 12 27 22 6 24 67 25 67 1 0
-14 2 -14 10 -1 5 9 5 19 -1 26 -10 12 10 36 27 33 20 -3 48 3 36 8 -22 9 19
32 58 33 19 1 29 4 22 7 -22 9 -2 23 34 23 19 0 33 -4 29 -9 -8 -15 15 -25 28
-12 8 8 7 11 -3 11 -13 0 -13 2 0 10 13 8 13 11 1 19 -19 12 20 33 57 31 15
-1 41 -1 57 0 28 1 29 2 8 10 -37 15 -27 20 43 20 36 0 63 -4 60 -9 -7 -11 29
-21 74 -20 l35 2 -35 7 -35 7 35 3 35 2 -44 12 c-96 25 -50 45 108 47 53 0 89
3 81 6 -8 2 -22 8 -30 11 -15 7 5702 20 5799 14 45 -4 50 -6 39 -19 -10 -13
-8 -14 12 -11 14 2 25 11 27 23 2 11 3 1308 3 2882 0 1573 2 2879 6 2902 4 22
10 38 15 35 11 -7 17 24 24 139 5 74 10 97 21 97 10 0 14 15 14 58 0 75 8 103
28 100 9 -2 17 4 18 12 3 36 5 41 13 35 12 -7 23 27 21 63 -4 45 11 91 26 85
10 -3 14 2 14 18 0 41 12 70 25 65 9 -3 15 10 20 39 4 33 10 43 21 38 9 -3 14
2 14 16 0 11 9 25 20 31 14 8 20 21 20 45 0 28 4 35 19 35 13 0 21 8 23 23 2
12 10 22 18 22 10 0 17 13 20 35 4 28 9 35 27 34 19 0 22 3 16 23 -4 20 -2 24
13 21 12 -2 20 5 24 22 4 15 12 24 22 22 10 -1 18 8 22 28 l6 31 27 -18 28
-17 -18 21 c-17 20 -17 21 14 52 35 36 51 36 59 0 5 -22 7 -22 13 -5 5 12 2
25 -8 36 -17 19 -11 30 17 30 11 0 18 7 18 20 0 12 7 20 16 20 9 0 18 -9 21
-20 3 -11 14 -20 24 -20 12 0 19 7 19 20 0 13 -7 20 -20 20 -13 0 -20 7 -20
20 0 23 34 28 47 7 11 -18 37 -27 53 -17 16 10 2 33 -16 26 -8 -3 -13 0 -11 7
1 7 -4 11 -10 10 -7 -2 -13 1 -13 7 0 5 16 12 35 16 19 3 35 10 35 16 0 5 -4
6 -10 3 -5 -3 -10 -2 -10 3 0 13 27 23 45 16 11 -5 15 1 15 20 0 24 4 26 43
27 23 1 34 3 25 6 -10 2 -18 8 -18 13 0 14 50 21 72 9 22 -12 22 -12 3 -20
-17 -8 -17 -8 5 -6 32 3 40 36 10 44 -38 10 -15 28 41 31 30 2 58 7 64 13 5 6
4 9 -4 9 -7 0 -9 5 -6 10 3 6 17 10 31 10 14 0 24 6 24 14 0 16 30 26 85 26
46 0 87 19 45 21 -24 1 -23 1 5 10 17 5 36 7 42 4 7 -2 18 4 26 15 10 15 31
20 110 26 75 5 97 10 93 20 -4 10 10 14 52 17 45 3 409 2 620 -2z m-12378
-8026 c0 -14 -7 -28 -15 -31 -8 -4 -15 -14 -15 -25 0 -10 -6 -22 -14 -26 -8
-4 -21 -25 -29 -45 -9 -21 -20 -38 -25 -38 -6 0 -13 -15 -16 -34 -4 -19 -13
-36 -20 -39 -7 -3 -17 -22 -20 -42 -4 -20 -14 -39 -22 -42 -8 -3 -14 -18 -14
-34 0 -17 -9 -36 -20 -46 -12 -11 -20 -30 -20 -50 0 -19 -6 -36 -16 -41 -9 -5
-18 -28 -21 -53 -3 -24 -12 -51 -20 -61 -8 -9 -18 -41 -22 -72 -4 -31 -15 -64
-24 -74 -12 -13 -17 -36 -17 -76 0 -33 -7 -70 -16 -89 -10 -19 -20 -73 -24
-137 -5 -58 -16 -157 -25 -220 -17 -118 -16 -145 14 -345 5 -33 10 -92 10
-131 1 -48 7 -83 21 -112 11 -23 20 -62 20 -89 0 -26 7 -61 16 -78 8 -16 18
-50 21 -75 3 -25 12 -52 19 -60 7 -9 18 -39 24 -68 7 -29 16 -52 20 -52 5 0
12 -17 15 -37 4 -21 15 -50 26 -65 10 -15 19 -36 19 -46 0 -10 9 -29 20 -42
11 -13 20 -31 20 -40 0 -9 9 -25 20 -35 11 -10 20 -26 20 -35 0 -9 9 -27 20
-40 11 -13 20 -31 20 -40 0 -10 7 -20 15 -24 8 -3 15 -12 15 -21 0 -13 -541
-15 -5235 -15 l-5235 0 0 -14500 0 -14500 22560 0 22560 0 0 14500 0 14500
-5237 2 c-3975 2 -5237 6 -5240 15 -2 6 5 14 16 18 12 3 21 14 21 24 0 10 9
30 20 44 11 14 20 32 20 40 0 8 7 20 14 27 8 6 20 27 26 46 6 19 15 34 20 34
5 0 12 14 15 32 4 18 16 44 25 58 10 14 21 42 25 63 3 20 10 37 15 37 5 0 12
17 15 38 3 20 15 54 25 74 11 20 20 46 20 58 0 11 9 46 20 77 11 32 20 74 20
94 0 21 8 57 19 81 13 32 20 82 26 191 4 81 11 150 16 153 12 7 12 236 0 268
-6 13 -13 82 -17 153 -5 92 -12 140 -25 170 -11 23 -19 64 -19 90 0 26 -7 62
-16 78 -9 17 -20 54 -24 84 -5 29 -16 58 -24 65 -7 6 -16 33 -19 60 -3 30 -11
52 -21 58 -10 6 -16 22 -16 43 0 24 -6 38 -20 45 -13 7 -20 21 -20 39 0 16 -6
34 -14 40 -8 7 -18 27 -22 44 -3 18 -15 40 -25 50 -11 10 -19 26 -19 36 0 10
-7 24 -14 31 -8 6 -20 27 -26 46 -6 19 -16 34 -21 34 -5 0 -14 11 -19 25 -5
14 -14 25 -20 25 -5 0 -10 10 -10 23 l0 22 6627 -3 c3644 -1 6628 -4 6630 -5
7 -8 2 -34462 -5 -34469 -9 -9 -50597 -6 -50606 3 -4 4 -9 30795 -6 34422 l0
47 6614 0 c4399 0 6617 3 6621 10 11 19 25 10 25 -15z m21465 -1745 c-3 -5
-10 -10 -16 -10 -5 0 -9 5 -9 10 0 6 7 10 16 10 8 0 12 -4 9 -10z m-18585
-595 c0 -8 -4 -15 -10 -15 -5 0 -10 7 -10 15 0 8 5 15 10 15 6 0 10 -7 10 -15z
m18120 -325 c0 -5 -5 -10 -11 -10 -5 0 -7 5 -4 10 3 6 8 10 11 10 2 0 4 -4 4
-10z m-23063 -3939 c138 -5 207 -12 218 -21 8 -7 54 -14 102 -17 49 -3 103
-12 122 -20 19 -9 68 -19 108 -24 43 -5 80 -14 89 -24 9 -8 33 -15 56 -15 23
0 49 -7 58 -15 10 -9 40 -19 68 -24 28 -4 62 -15 76 -24 14 -10 37 -17 52 -17
14 0 37 -9 51 -20 14 -11 35 -20 47 -20 11 0 35 -9 51 -20 17 -11 43 -20 58
-20 15 0 30 -7 33 -15 4 -8 12 -15 19 -15 6 0 33 -11 59 -25 26 -14 53 -25 61
-25 8 0 18 -6 22 -14 4 -7 24 -19 45 -25 20 -7 39 -18 42 -26 3 -8 17 -15 30
-15 14 0 29 -6 33 -13 8 -14 36 -31 99 -61 17 -9 34 -22 37 -30 3 -8 19 -17
35 -21 17 -3 33 -13 36 -21 3 -8 11 -14 17 -14 7 0 19 -7 28 -15 35 -33 79
-65 90 -65 6 0 16 -9 23 -20 7 -11 18 -20 25 -20 7 0 17 -9 23 -20 6 -11 15
-20 19 -20 10 0 50 -33 130 -107 31 -29 61 -53 68 -53 6 0 15 -9 18 -20 3 -11
11 -20 16 -20 14 0 69 -55 69 -69 0 -5 9 -13 20 -16 11 -3 20 -13 20 -21 0 -8
7 -14 15 -14 8 0 15 -4 15 -9 0 -4 12 -22 28 -38 15 -17 36 -42 47 -57 11 -15
37 -44 58 -65 20 -21 37 -43 37 -49 0 -6 9 -16 20 -22 11 -6 20 -17 20 -25 0
-8 4 -15 10 -15 5 0 28 -27 50 -60 22 -33 45 -60 50 -60 6 0 10 -9 10 -19 0
-10 7 -21 15 -24 8 -4 21 -21 30 -39 8 -18 24 -46 35 -63 11 -16 27 -45 35
-62 8 -18 19 -33 24 -33 4 0 15 -17 24 -37 17 -39 29 -60 60 -102 9 -13 17
-31 17 -40 0 -9 9 -27 20 -41 11 -14 20 -32 20 -41 0 -9 9 -28 20 -42 11 -14
20 -34 20 -45 0 -10 9 -31 20 -45 11 -14 20 -39 20 -56 0 -19 5 -31 13 -31 8
0 19 -21 26 -52 6 -29 18 -59 25 -68 7 -8 16 -37 19 -64 3 -30 11 -52 21 -58
10 -6 16 -22 16 -46 0 -21 8 -53 18 -72 11 -19 22 -62 25 -94 3 -33 11 -62 17
-66 6 -3 15 -47 20 -96 6 -49 17 -102 24 -119 8 -17 16 -85 20 -160 3 -71 11
-150 17 -175 17 -66 16 -476 -1 -515 -8 -17 -16 -89 -19 -170 -5 -110 -10
-146 -24 -165 -11 -16 -17 -44 -17 -85 -1 -38 -8 -74 -20 -100 -11 -22 -19
-59 -20 -83 0 -23 -9 -60 -20 -82 -11 -22 -20 -52 -20 -67 0 -16 -6 -38 -14
-49 -8 -11 -18 -38 -22 -60 -4 -21 -15 -55 -25 -74 -11 -19 -19 -42 -19 -50 0
-8 -9 -32 -20 -53 -11 -20 -20 -44 -20 -53 0 -9 -9 -27 -20 -41 -11 -14 -20
-36 -20 -50 0 -13 -6 -26 -14 -29 -8 -3 -18 -20 -22 -37 -3 -18 -15 -43 -25
-56 -11 -13 -19 -32 -19 -41 0 -10 -7 -23 -14 -30 -8 -6 -20 -27 -26 -45 -6
-18 -17 -36 -25 -39 -8 -3 -15 -14 -15 -24 0 -11 -9 -31 -20 -45 -11 -14 -20
-28 -20 -31 0 -3 -15 -26 -32 -52 -18 -25 -37 -53 -43 -63 -30 -51 -63 -98
-86 -124 -15 -16 -33 -41 -40 -55 -8 -15 -29 -42 -46 -60 -18 -18 -33 -37 -33
-42 0 -5 -9 -14 -20 -20 -11 -6 -20 -15 -20 -19 0 -5 -16 -26 -35 -48 -131
-145 -173 -190 -199 -213 -16 -14 -56 -50 -89 -80 -33 -30 -64 -54 -68 -53 -5
2 -9 -4 -9 -12 0 -8 -6 -15 -13 -15 -7 0 -18 -9 -25 -20 -7 -11 -19 -20 -26
-20 -8 0 -18 -9 -21 -20 -3 -11 -13 -20 -21 -20 -8 0 -17 -6 -20 -14 -3 -8
-19 -20 -35 -26 -16 -7 -29 -16 -29 -21 0 -5 -11 -14 -25 -19 -14 -5 -25 -13
-25 -18 0 -5 -15 -16 -32 -26 -77 -40 -88 -48 -88 -55 0 -5 -13 -14 -30 -21
-16 -7 -30 -16 -30 -20 0 -5 -13 -13 -30 -19 -16 -5 -30 -14 -30 -19 0 -5 -18
-15 -40 -22 -22 -7 -40 -19 -40 -27 0 -7 -8 -13 -19 -13 -10 0 -24 -6 -30 -14
-7 -8 -24 -17 -38 -21 -15 -3 -39 -15 -54 -26 -15 -10 -34 -19 -42 -19 -7 0
-24 -9 -37 -20 -13 -11 -33 -20 -45 -20 -12 0 -34 -9 -48 -20 -14 -11 -36 -20
-49 -20 -13 0 -31 -9 -41 -20 -9 -11 -29 -20 -45 -20 -16 0 -39 -9 -52 -20
-13 -11 -37 -20 -54 -20 -17 0 -44 -9 -61 -20 -16 -11 -44 -20 -62 -20 -18 0
-48 -9 -68 -20 -20 -11 -54 -20 -77 -20 -24 0 -49 -7 -59 -16 -10 -9 -43 -18
-81 -21 -35 -3 -78 -12 -97 -20 -20 -9 -85 -19 -153 -24 -65 -4 -128 -14 -140
-21 -35 -20 -748 -19 -772 1 -12 10 -56 17 -142 21 -90 4 -127 9 -134 19 -5 9
-36 17 -82 21 -40 3 -87 14 -105 23 -18 9 -51 17 -73 17 -27 0 -51 7 -67 20
-15 12 -41 20 -62 20 -20 0 -51 9 -69 20 -18 11 -48 20 -66 20 -20 0 -36 6
-39 14 -3 7 -28 19 -56 26 -27 6 -55 18 -62 26 -6 8 -22 14 -35 14 -12 0 -44
11 -70 25 -26 14 -55 25 -66 25 -10 0 -21 7 -24 15 -4 8 -13 15 -21 15 -8 0
-26 9 -40 20 -14 11 -31 20 -38 20 -6 0 -22 9 -35 20 -13 11 -31 20 -40 20
-10 0 -24 7 -31 17 -8 9 -27 22 -44 30 -16 7 -43 22 -60 33 -16 11 -45 27 -62
37 -18 9 -33 23 -33 30 0 7 -7 13 -16 13 -8 0 -30 11 -48 25 -18 14 -38 25
-44 25 -7 0 -12 7 -12 15 0 8 -9 15 -20 15 -11 0 -20 4 -20 9 0 6 -25 27 -56
47 -31 20 -58 43 -61 51 -3 7 -11 13 -19 13 -7 0 -18 9 -24 20 -6 11 -17 20
-25 20 -8 0 -15 7 -15 15 0 9 -8 19 -17 22 -10 4 -27 16 -38 27 -30 31 -104
90 -126 100 -10 5 -19 15 -19 23 0 7 -19 33 -42 57 -88 91 -114 121 -121 139
-3 9 -13 17 -22 17 -8 0 -15 7 -15 15 0 8 -9 20 -20 27 -11 7 -20 16 -20 20 0
5 -9 18 -20 31 -41 44 -47 52 -60 77 -7 14 -19 29 -26 33 -8 4 -14 14 -14 21
0 8 -7 16 -15 19 -8 4 -21 22 -29 42 -8 19 -20 35 -25 35 -6 0 -11 6 -11 14 0
8 -8 22 -17 31 -18 19 -45 65 -63 108 -7 15 -16 27 -20 27 -5 0 -14 16 -20 35
-6 19 -15 35 -19 35 -4 0 -13 15 -19 34 -7 19 -19 37 -27 40 -8 3 -15 18 -15
33 0 16 -9 36 -20 46 -11 9 -20 27 -20 40 0 13 -9 32 -20 42 -11 10 -20 28
-20 40 0 11 -7 30 -15 41 -8 10 -20 37 -26 59 -6 22 -17 47 -24 55 -7 8 -15
33 -18 54 -4 22 -11 42 -16 45 -5 4 -15 28 -21 54 -6 27 -16 58 -24 70 -7 12
-16 44 -20 70 -3 27 -13 58 -21 70 -8 12 -15 42 -15 67 -1 25 -9 63 -20 85
-11 24 -20 63 -20 95 -1 30 -8 73 -16 95 -9 24 -18 108 -25 215 -5 96 -14 191
-20 210 -19 64 17 686 41 715 7 8 14 52 17 97 4 51 13 97 24 120 11 21 19 53
19 72 0 19 9 58 20 86 11 28 20 62 20 77 0 14 8 40 19 57 10 17 22 52 25 79 4
26 11 47 16 47 5 0 14 24 20 54 6 30 18 57 26 60 7 3 14 16 14 29 0 14 9 36
20 50 11 14 20 35 20 47 0 12 9 33 20 47 11 14 20 32 20 40 0 8 9 26 20 40 11
14 20 35 20 47 0 12 9 27 20 34 11 7 20 21 20 32 0 11 9 28 20 37 11 10 20 28
20 40 0 13 9 28 20 35 11 7 20 20 20 29 0 9 8 27 18 40 10 13 21 32 25 42 3 9
10 17 15 17 5 0 15 14 22 30 7 17 16 30 20 30 5 0 13 14 19 30 5 17 17 30 25
30 9 0 16 9 16 20 0 11 7 23 15 26 8 3 17 16 21 27 4 12 16 32 28 44 47 49 56
60 56 71 0 5 4 12 9 14 4 2 35 34 67 73 32 38 82 93 110 121 28 29 54 59 57
68 4 9 11 16 17 16 5 0 35 25 65 55 30 30 57 55 60 55 6 0 62 49 122 108 13
12 28 22 33 22 5 0 14 9 20 20 6 11 17 20 24 20 7 0 21 9 31 20 10 11 24 20
31 20 8 0 19 9 26 20 7 11 18 20 25 20 7 0 17 9 23 20 6 11 20 20 30 20 11 0
28 9 37 20 10 11 23 20 30 20 7 0 17 9 23 20 6 11 19 20 29 20 10 0 26 9 36
20 10 11 25 20 34 20 9 0 24 9 34 20 9 11 25 20 35 20 10 0 25 9 35 20 9 11
28 20 42 20 14 0 29 8 35 20 7 13 21 20 40 20 19 0 33 7 40 20 7 13 21 20 39
20 15 0 36 9 46 20 10 11 29 20 43 20 13 0 36 8 50 19 15 10 43 22 62 26 19 4
39 13 45 20 5 7 30 15 54 18 24 3 47 11 51 18 4 6 31 15 60 20 29 4 60 15 70
24 10 9 35 15 63 15 30 0 49 5 54 14 5 10 38 19 91 25 46 6 93 17 105 26 14
10 45 15 88 15 36 0 88 7 115 16 33 11 106 19 229 23 262 11 318 11 542 2z
m25826 -350 c3 -16 13 -35 21 -43 8 -8 22 -30 30 -49 16 -35 27 -54 58 -101
10 -15 18 -34 18 -42 0 -7 6 -16 14 -19 8 -3 17 -20 21 -37 4 -18 16 -41 26
-51 10 -10 19 -28 19 -39 0 -11 9 -29 20 -40 11 -11 20 -29 20 -40 0 -11 7
-23 15 -26 8 -3 17 -21 21 -40 3 -19 12 -38 19 -42 7 -4 20 -24 30 -44 9 -21
21 -38 26 -38 5 0 9 -7 9 -16 0 -9 9 -27 20 -41 11 -14 20 -34 20 -45 0 -10 6
-21 14 -24 8 -3 17 -17 21 -31 3 -15 15 -38 26 -51 10 -14 19 -32 19 -42 0 -9
9 -25 20 -35 11 -10 20 -26 20 -35 0 -9 9 -27 19 -39 11 -13 23 -35 26 -51 3
-16 13 -31 21 -34 8 -3 14 -15 14 -26 0 -11 9 -28 20 -37 11 -10 20 -25 20
-34 0 -9 7 -22 15 -29 8 -6 17 -22 21 -33 4 -12 15 -33 25 -46 11 -13 19 -30
19 -38 0 -8 9 -26 20 -40 11 -14 20 -36 20 -49 0 -13 6 -24 13 -24 8 0 19 -18
26 -39 6 -21 18 -42 26 -45 8 -3 15 -15 15 -26 0 -11 9 -29 20 -40 11 -11 20
-25 20 -31 0 -6 9 -22 20 -36 11 -14 20 -34 20 -45 0 -10 6 -21 14 -24 8 -3
18 -18 21 -34 3 -15 15 -36 26 -46 10 -9 19 -26 19 -36 0 -10 9 -32 20 -48 11
-17 29 -43 40 -59 10 -16 22 -41 26 -55 3 -14 12 -30 20 -37 8 -6 14 -16 14
-21 0 -5 9 -21 20 -35 11 -14 20 -34 20 -45 0 -10 6 -21 14 -24 8 -3 17 -17
21 -32 4 -15 15 -35 26 -45 10 -10 19 -29 19 -42 0 -13 6 -28 14 -32 7 -4 19
-24 25 -45 7 -20 18 -39 26 -42 8 -3 15 -14 15 -24 0 -11 9 -31 20 -45 11 -14
20 -30 20 -36 0 -7 9 -21 20 -33 11 -12 20 -29 20 -39 0 -9 7 -22 15 -29 8 -6
17 -22 21 -33 4 -12 15 -33 25 -46 11 -13 19 -32 19 -42 0 -10 6 -22 13 -26 7
-4 19 -24 27 -43 8 -19 20 -39 27 -43 7 -4 13 -16 13 -26 0 -10 9 -30 20 -44
11 -14 20 -28 20 -32 0 -4 9 -18 20 -32 11 -14 20 -32 20 -40 0 -8 9 -26 20
-40 11 -14 20 -34 20 -43 0 -10 6 -20 14 -23 8 -3 17 -20 21 -37 4 -17 13 -34
20 -37 8 -2 17 -17 20 -33 3 -16 15 -38 26 -51 10 -12 19 -30 19 -39 0 -9 9
-25 20 -35 11 -10 20 -26 20 -35 0 -10 9 -29 20 -43 11 -14 20 -28 20 -32 0
-4 9 -18 20 -32 11 -14 20 -34 20 -45 0 -10 6 -21 14 -24 8 -3 18 -19 21 -36
4 -16 16 -39 26 -49 10 -10 19 -28 19 -39 0 -10 9 -24 20 -30 11 -6 20 -17 20
-24 0 -7 14 -37 30 -67 17 -30 39 -73 49 -95 11 -23 24 -45 30 -48 6 -4 11
-15 11 -26 0 -10 6 -20 14 -23 8 -3 17 -19 21 -36 4 -17 12 -34 19 -38 7 -5
19 -24 25 -45 7 -20 18 -39 26 -42 8 -3 15 -18 15 -33 0 -17 8 -33 20 -41 11
-7 20 -20 20 -30 0 -10 9 -28 20 -40 11 -12 20 -28 20 -37 0 -8 9 -24 20 -35
11 -11 20 -27 20 -36 0 -9 9 -27 20 -41 11 -14 20 -34 20 -43 0 -10 6 -20 14
-23 7 -3 17 -18 21 -34 3 -15 15 -36 26 -46 10 -10 19 -29 19 -42 0 -13 7 -28
15 -32 14 -8 65 -96 65 -114 0 -5 9 -18 20 -29 11 -11 20 -27 20 -36 0 -9 9
-27 20 -41 11 -14 20 -34 20 -43 0 -10 6 -20 14 -23 8 -3 17 -19 21 -36 4 -17
15 -36 26 -41 12 -7 19 -21 19 -40 0 -17 5 -30 11 -30 5 0 17 -17 26 -37 8
-21 21 -42 29 -46 8 -4 14 -18 14 -30 0 -13 9 -30 20 -40 11 -9 20 -24 20 -33
0 -8 7 -22 15 -31 9 -8 19 -29 22 -45 3 -16 12 -32 19 -35 7 -2 16 -17 19 -33
3 -15 15 -36 26 -46 10 -9 19 -27 19 -40 0 -13 6 -27 14 -31 8 -4 21 -24 30
-43 9 -19 27 -53 41 -75 13 -22 27 -47 30 -55 13 -29 25 -55 35 -72 5 -10 15
-26 20 -35 6 -10 16 -29 22 -43 7 -14 20 -36 30 -49 10 -13 18 -32 18 -42 0
-10 9 -23 20 -29 11 -6 20 -19 20 -28 0 -10 9 -28 20 -40 11 -12 20 -30 20
-40 0 -10 9 -27 20 -37 11 -10 20 -25 20 -32 0 -8 9 -26 20 -40 11 -14 20 -32
20 -40 0 -8 9 -26 20 -40 11 -14 20 -34 20 -44 0 -11 5 -19 11 -19 5 0 17 -17
26 -37 8 -21 21 -42 29 -46 8 -4 14 -16 14 -26 0 -10 9 -30 20 -44 11 -14 20
-32 20 -41 0 -9 9 -25 20 -36 11 -11 20 -25 20 -31 0 -6 9 -22 20 -36 11 -14
20 -34 20 -43 0 -10 7 -23 15 -30 8 -6 17 -22 21 -33 4 -12 15 -33 25 -46 11
-13 19 -34 19 -47 0 -14 6 -24 15 -24 8 0 17 -14 21 -35 3 -20 15 -40 25 -46
11 -5 19 -18 19 -28 0 -10 9 -26 20 -36 11 -10 20 -25 20 -32 0 -8 9 -26 20
-40 11 -14 20 -34 20 -45 0 -10 6 -21 14 -24 8 -3 18 -19 21 -36 4 -16 16 -39
26 -49 10 -10 19 -28 19 -39 0 -10 6 -23 13 -27 6 -4 20 -24 29 -43 10 -19 22
-42 27 -50 5 -8 14 -26 20 -40 11 -26 24 -48 53 -92 10 -15 18 -34 18 -43 0
-9 6 -18 14 -21 8 -3 18 -18 21 -34 3 -16 15 -38 26 -51 10 -12 19 -31 19 -41
0 -10 7 -21 15 -24 8 -3 17 -22 21 -41 4 -19 12 -37 20 -40 7 -2 18 -21 25
-41 6 -21 18 -41 25 -45 8 -4 14 -16 14 -26 0 -9 9 -27 20 -39 11 -12 20 -27
20 -35 0 -8 9 -24 20 -37 11 -13 20 -32 20 -42 0 -10 6 -21 14 -24 8 -3 18
-18 21 -34 3 -16 12 -34 20 -40 8 -6 17 -25 20 -41 4 -16 12 -32 20 -36 7 -5
20 -24 29 -43 8 -19 20 -42 25 -50 5 -8 14 -26 20 -40 11 -26 24 -48 53 -92
10 -15 18 -32 18 -38 0 -5 9 -19 20 -30 11 -11 20 -27 20 -36 0 -9 9 -27 20
-41 11 -14 20 -34 20 -45 0 -10 7 -21 15 -24 8 -4 18 -24 21 -45 4 -22 12 -39
20 -39 7 0 18 -16 24 -36 7 -19 18 -38 26 -41 8 -3 14 -13 14 -23 0 -9 9 -27
20 -40 11 -13 20 -31 20 -40 0 -10 7 -20 14 -23 8 -3 18 -22 21 -41 4 -19 13
-37 20 -39 7 -3 16 -18 20 -34 3 -15 15 -36 26 -46 10 -10 19 -26 19 -37 0
-10 6 -25 13 -32 7 -7 21 -29 30 -48 20 -40 34 -64 59 -102 10 -15 18 -32 18
-39 0 -6 9 -22 20 -36 11 -14 20 -32 20 -39 0 -8 9 -23 20 -34 11 -11 20 -29
20 -40 0 -11 7 -23 15 -26 8 -3 20 -24 25 -45 6 -21 15 -39 20 -39 4 0 14 -15
20 -34 6 -19 18 -40 26 -46 7 -7 14 -22 14 -35 0 -12 9 -30 20 -40 11 -10 20
-22 20 -27 0 -6 9 -21 20 -35 11 -14 20 -34 20 -45 0 -10 6 -21 14 -24 8 -3
17 -17 21 -31 3 -15 15 -38 26 -51 10 -14 19 -33 19 -44 0 -10 7 -21 15 -24 8
-3 17 -16 21 -27 4 -12 15 -34 25 -49 11 -14 19 -33 19 -41 0 -7 9 -24 20 -37
11 -13 20 -27 20 -32 0 -6 9 -21 20 -35 11 -14 20 -36 20 -49 0 -13 5 -24 10
-24 6 0 16 -12 22 -27 7 -16 20 -39 30 -52 10 -13 18 -32 18 -42 0 -11 5 -19
10 -19 6 0 19 -20 30 -45 11 -25 24 -45 30 -45 5 0 10 -9 10 -20 0 -12 8 -33
18 -48 29 -44 42 -66 53 -92 6 -14 15 -32 20 -40 5 -8 15 -26 21 -40 7 -14 20
-36 30 -49 10 -13 18 -32 18 -42 0 -10 6 -22 14 -26 7 -4 19 -24 25 -45 7 -20
18 -39 26 -42 8 -3 15 -14 15 -24 0 -10 9 -29 20 -42 11 -13 20 -27 20 -32 0
-6 9 -21 20 -35 11 -14 20 -34 20 -43 0 -10 6 -20 14 -23 8 -3 17 -19 21 -36
3 -16 13 -35 20 -41 8 -7 17 -27 21 -46 3 -19 12 -34 19 -34 6 0 17 -18 24
-39 6 -21 18 -42 26 -45 8 -3 15 -16 15 -29 0 -13 9 -32 20 -42 11 -10 20 -26
20 -35 0 -9 9 -25 20 -35 11 -10 20 -26 20 -35 0 -9 9 -27 20 -40 11 -13 20
-32 20 -42 0 -10 6 -21 14 -24 8 -3 18 -19 21 -36 4 -16 13 -32 20 -34 7 -3
16 -21 19 -40 4 -18 16 -38 26 -44 13 -7 20 -21 20 -39 0 -17 7 -31 15 -35 8
-3 20 -17 25 -31 5 -14 14 -25 19 -25 5 0 13 -15 17 -32 3 -18 15 -44 25 -57
11 -13 19 -29 19 -36 0 -6 9 -22 20 -35 11 -13 20 -30 20 -37 0 -8 9 -26 20
-40 11 -14 20 -34 20 -44 0 -10 9 -23 20 -29 11 -6 20 -21 20 -34 0 -13 9 -31
20 -41 11 -10 20 -26 20 -35 0 -9 9 -25 20 -35 11 -10 20 -28 20 -40 0 -12 9
-30 20 -40 11 -10 20 -24 20 -32 0 -7 9 -22 20 -33 11 -11 20 -29 20 -39 0
-11 5 -23 10 -26 6 -4 17 -22 25 -41 8 -19 21 -42 30 -50 8 -9 15 -23 15 -33
0 -10 9 -26 20 -36 11 -10 20 -26 20 -37 0 -10 9 -26 20 -35 11 -10 20 -24 20
-31 0 -8 9 -25 20 -39 11 -14 20 -34 20 -45 0 -10 7 -21 15 -24 8 -3 17 -22
21 -41 4 -19 12 -37 20 -40 7 -2 16 -18 19 -35 4 -16 13 -32 21 -35 7 -3 16
-20 20 -39 3 -19 15 -39 25 -45 11 -5 19 -19 19 -29 0 -11 9 -29 20 -40 11
-11 20 -26 20 -34 0 -7 9 -25 20 -39 11 -14 20 -30 20 -37 0 -7 9 -23 20 -37
11 -14 20 -34 20 -43 0 -10 6 -20 14 -23 7 -3 16 -17 20 -32 4 -15 15 -39 24
-54 34 -50 43 -66 59 -103 9 -21 20 -38 24 -38 4 0 13 -15 19 -34 6 -19 18
-40 26 -46 7 -7 14 -19 14 -26 0 -8 9 -23 20 -34 11 -11 20 -27 20 -36 0 -9 9
-27 20 -41 11 -14 20 -34 20 -45 0 -10 6 -21 14 -24 8 -3 18 -20 22 -37 3 -18
15 -40 25 -50 11 -10 19 -26 19 -36 0 -10 9 -26 19 -35 11 -10 23 -31 26 -46
3 -16 13 -31 21 -34 8 -3 14 -13 14 -22 0 -9 9 -27 20 -41 11 -14 20 -32 20
-40 0 -8 9 -26 20 -40 11 -14 20 -31 20 -38 0 -7 6 -18 14 -24 8 -7 18 -26 21
-42 4 -16 12 -32 18 -36 13 -8 33 -45 91 -160 20 -40 41 -75 46 -78 6 -3 10
-14 10 -25 0 -10 6 -20 14 -23 8 -3 17 -20 21 -37 4 -17 13 -34 21 -37 8 -3
17 -23 20 -44 4 -21 12 -39 19 -39 6 0 18 -18 25 -39 7 -22 19 -42 26 -45 8
-3 14 -17 14 -31 0 -14 9 -33 20 -42 11 -10 20 -25 20 -34 0 -9 9 -24 20 -34
11 -10 20 -27 20 -37 0 -10 6 -21 14 -24 8 -3 18 -19 21 -36 4 -16 16 -39 26
-49 10 -10 19 -30 19 -44 0 -15 6 -25 14 -25 8 0 20 -15 26 -34 6 -19 18 -40
26 -46 7 -7 14 -20 14 -30 0 -9 9 -28 19 -42 11 -13 23 -36 26 -51 4 -14 13
-28 21 -31 8 -3 14 -15 14 -26 0 -12 9 -30 20 -42 11 -12 20 -30 20 -40 0 -10
7 -18 15 -18 8 0 17 -10 20 -22 3 -13 4 -1479 3 -3258 l-3 -3235 -20508 0
c-18218 0 -20509 2 -20517 15 -5 8 -10 32 -10 53 0 21 -8 50 -17 64 -17 25
-18 75 -18 688 0 505 3 668 13 696 8 24 15 149 21 380 5 211 12 352 19 364 6
12 15 142 21 299 7 153 16 287 22 297 5 10 13 133 18 272 6 160 13 262 21 276
7 14 15 110 21 243 5 128 14 226 20 234 6 7 14 103 18 232 5 136 13 227 21
241 7 13 15 99 20 208 5 102 14 191 20 198 6 7 13 70 16 141 4 81 13 151 24
189 10 33 21 96 23 139 3 43 11 82 17 86 6 4 15 45 19 91 5 46 16 101 25 123
9 21 16 53 16 71 0 18 9 62 20 97 11 34 20 84 20 110 0 30 6 52 17 64 10 10
20 43 25 81 4 36 13 71 19 79 6 7 14 43 19 78 4 36 15 72 23 80 7 8 17 38 20
67 4 29 11 55 17 59 6 4 13 31 17 61 3 30 14 65 25 78 10 13 18 37 18 54 0 17
9 49 19 71 10 23 21 58 24 80 4 21 13 46 21 55 8 9 17 37 21 63 4 26 13 53 21
59 8 6 14 23 14 36 0 14 9 36 20 50 11 14 20 38 20 52 0 14 8 42 19 61 10 19
21 52 25 73 4 21 13 40 20 43 8 3 16 22 20 44 3 21 13 40 21 44 9 3 15 18 15
39 0 19 9 46 20 60 11 14 20 31 20 39 0 7 9 30 20 51 11 20 20 45 20 55 0 11
9 27 20 37 11 10 20 27 20 38 0 10 8 36 19 56 10 20 24 47 30 61 6 14 15 32
20 40 5 8 14 26 20 40 6 14 15 32 20 40 5 8 14 26 20 40 6 14 15 32 20 40 5 8
14 26 20 40 6 14 15 33 21 43 5 9 14 25 20 35 23 40 70 140 70 148 0 5 9 15
19 21 11 7 22 26 26 43 4 16 13 30 21 30 8 0 14 10 14 25 0 14 9 33 20 42 11
10 20 24 20 33 0 9 9 23 20 33 11 9 20 28 20 42 0 16 6 25 15 25 9 0 19 8 22
18 4 9 15 28 25 41 10 13 18 32 18 41 0 10 7 21 15 24 9 3 23 22 31 41 8 19
19 35 24 35 6 0 10 9 10 19 0 10 7 21 15 24 8 4 21 22 29 42 8 19 20 35 25 35
6 0 11 7 11 15 0 8 9 20 20 27 11 7 20 18 20 24 0 6 9 21 20 34 11 13 20 29
20 36 0 7 9 18 20 24 11 6 20 17 20 26 0 8 7 17 15 20 8 3 17 14 20 24 5 16
28 46 70 91 8 9 15 21 15 27 0 7 4 12 9 12 6 0 26 24 46 54 20 30 42 57 50 60
8 3 15 12 15 20 0 9 9 20 20 26 11 6 20 17 20 25 0 7 9 17 20 20 11 3 20 12
20 18 0 13 30 52 83 107 19 19 37 43 40 53 4 9 13 17 21 17 7 0 16 9 19 20 3
11 12 20 20 20 8 0 17 9 20 20 3 11 12 20 21 20 9 0 16 7 16 15 0 8 9 19 20
25 11 6 20 17 20 25 0 8 8 15 19 15 10 0 21 9 24 20 3 11 12 20 21 20 9 0 16
8 16 20 0 13 7 20 20 20 11 0 20 7 20 15 0 8 9 19 20 25 11 6 20 17 20 25 0 8
9 15 20 15 11 0 20 5 20 11 0 13 55 69 68 69 5 0 12 9 15 20 3 11 12 20 21 20
9 0 16 7 16 15 0 8 4 15 10 15 5 0 28 18 52 40 24 22 53 43 65 46 12 3 25 15
28 25 4 10 13 19 20 19 8 0 19 9 25 20 6 11 17 20 25 20 8 0 15 7 15 15 0 8 4
15 9 15 8 0 74 48 102 75 9 8 21 15 27 15 6 0 16 9 22 20 6 11 17 20 26 20 8
0 17 6 20 14 3 8 18 19 34 26 16 7 31 18 34 26 3 8 12 14 20 14 9 0 20 9 26
20 6 11 15 20 20 20 10 0 77 42 100 63 8 8 23 17 33 20 9 4 17 11 17 17 0 5 7
10 15 10 9 0 27 11 41 25 14 14 30 25 35 25 6 0 22 9 36 20 14 11 32 20 39 20
7 0 18 9 24 19 5 11 23 22 39 26 16 3 32 13 35 21 3 8 14 14 25 14 11 0 25 9
31 20 6 12 21 20 35 20 13 0 28 6 32 14 4 8 25 21 46 29 20 9 37 21 37 26 0 6
11 11 23 11 13 0 34 9 47 20 13 11 29 20 35 20 7 0 23 8 36 19 13 10 39 22 57
26 18 4 36 13 38 20 3 7 21 16 40 20 19 3 38 13 41 21 3 7 17 14 33 14 15 0
37 9 50 20 13 11 33 20 46 20 13 0 28 9 34 20 6 12 21 20 37 20 14 0 40 9 57
19 17 11 48 22 68 26 20 4 39 13 42 21 3 8 19 14 39 14 19 0 46 9 60 20 14 11
36 20 50 20 13 0 34 9 47 20 13 11 37 20 57 20 18 0 50 9 70 20 21 11 50 20
65 20 16 0 36 9 45 20 13 15 30 20 63 20 28 0 56 8 75 20 17 12 47 20 70 20
23 0 58 9 80 20 22 11 57 20 80 20 22 0 54 7 70 16 17 9 66 19 109 24 51 5 84
13 90 23 8 10 38 16 104 19 61 3 96 9 101 17 6 9 51 16 141 21 90 6 135 12
141 21 5 9 64 15 219 21 116 4 220 13 231 18 27 15 730 15 758 1 11 -6 106
-14 213 -17 123 -5 208 -12 233 -21 22 -8 96 -18 164 -23 69 -6 128 -15 131
-20 4 -6 49 -14 101 -17 53 -3 103 -12 115 -20 12 -7 61 -18 109 -24 48 -5 97
-15 109 -21 11 -7 52 -15 90 -19 37 -3 71 -12 75 -18 5 -7 38 -16 75 -22 37
-5 77 -16 89 -24 12 -8 43 -15 70 -15 32 0 49 -5 53 -15 3 -8 26 -17 52 -21
26 -3 57 -12 69 -20 12 -7 47 -17 77 -20 31 -4 65 -15 76 -24 11 -10 42 -20
69 -24 27 -4 51 -11 53 -16 2 -5 27 -14 57 -20 30 -5 59 -16 65 -24 6 -8 28
-17 49 -20 20 -4 37 -11 37 -16 0 -4 23 -13 51 -19 28 -6 57 -18 65 -26 9 -8
25 -15 38 -15 12 0 39 -9 61 -20 22 -11 47 -20 57 -20 9 0 25 -8 35 -19 10
-10 33 -21 51 -24 18 -4 40 -14 48 -22 9 -8 25 -15 36 -15 11 0 31 -9 45 -20
14 -11 36 -20 50 -20 13 0 26 -6 29 -14 3 -8 25 -19 48 -25 24 -6 48 -17 55
-25 6 -8 27 -17 46 -20 19 -4 35 -11 35 -16 0 -5 15 -14 34 -20 19 -6 40 -18
46 -26 7 -7 20 -14 30 -14 10 0 20 -6 23 -14 3 -8 21 -17 39 -21 18 -4 44 -16
57 -26 13 -11 30 -19 38 -19 7 0 16 -7 19 -15 3 -8 22 -17 41 -21 19 -4 37
-13 40 -20 3 -8 23 -19 44 -24 21 -6 39 -15 39 -21 0 -5 13 -15 30 -20 17 -6
30 -15 30 -19 0 -4 14 -13 30 -19 17 -5 30 -14 30 -20 0 -5 13 -12 29 -16 16
-3 37 -15 47 -26 9 -10 22 -19 29 -19 7 0 22 -9 35 -20 13 -11 31 -20 42 -20
10 0 18 -6 18 -14 0 -8 15 -20 34 -26 19 -6 37 -17 40 -25 3 -8 15 -15 26 -15
11 0 20 -4 20 -10 0 -5 15 -17 33 -26 17 -9 36 -23 40 -30 4 -8 17 -14 27 -14
11 0 20 -5 20 -11 0 -5 17 -17 38 -26 20 -8 41 -21 45 -29 4 -8 12 -14 17 -14
5 0 20 -11 34 -25 14 -14 32 -25 39 -25 8 0 17 -7 21 -15 3 -8 12 -15 20 -15
9 0 20 -9 26 -20 6 -11 16 -20 21 -20 6 0 33 -18 59 -40 26 -22 53 -40 59 -40
5 0 15 -9 21 -20 6 -11 16 -20 21 -20 11 0 56 -33 90 -65 9 -8 21 -15 27 -15
6 0 16 -9 22 -20 6 -11 17 -20 25 -20 8 0 15 -4 15 -10 0 -5 17 -20 38 -34 20
-13 48 -35 62 -49 14 -15 30 -27 37 -27 7 0 17 -9 23 -20 6 -11 17 -20 25 -20
8 0 15 -7 15 -15 0 -9 8 -18 18 -22 9 -3 24 -13 33 -22 9 -9 32 -27 50 -41 18
-14 49 -41 68 -61 20 -19 44 -38 54 -42 9 -3 17 -13 17 -22 0 -8 7 -15 16 -15
9 0 18 -9 21 -20 3 -11 11 -20 19 -20 7 0 18 -9 24 -20 6 -11 17 -20 25 -20 8
0 15 -7 15 -15 0 -9 8 -19 18 -22 9 -4 117 -107 240 -230 122 -123 228 -223
236 -223 14 0 99 88 109 114 4 9 13 16 21 16 7 0 16 9 19 20 3 11 12 20 20 20
8 0 17 9 20 20 3 11 12 20 21 20 9 0 16 7 16 15 0 8 9 19 20 25 11 6 20 17 20
25 0 8 7 15 15 15 9 0 18 7 22 17 4 9 23 32 43 52 20 20 83 87 141 150 57 63
120 131 140 152 20 20 39 44 42 53 4 9 13 16 22 16 8 0 15 7 15 15 0 8 9 19
20 25 11 6 20 17 20 25 0 8 7 15 16 15 9 0 18 9 21 20 3 11 12 20 19 20 8 0
18 8 21 18 4 9 25 36 48 58 23 23 60 64 81 90 21 27 45 53 52 58 8 4 24 20 35
34 12 15 41 45 63 69 23 23 44 49 47 58 4 8 13 15 22 15 8 0 15 6 15 13 0 6
18 28 40 47 22 19 40 41 40 48 0 6 7 12 15 12 8 0 15 4 15 9 0 5 17 27 38 49
20 21 71 77 112 123 41 46 92 101 113 122 20 22 37 43 37 48 0 5 6 9 14 9 7 0
16 9 19 20 3 11 12 20 21 20 9 0 16 6 16 13 0 6 18 28 40 47 22 19 40 41 40
48 0 6 7 12 15 12 9 0 18 7 22 16 3 9 31 43 62 75 31 32 74 80 96 105 22 26
68 76 102 111 34 35 64 71 67 79 3 8 12 14 21 14 8 0 15 7 15 15 0 8 9 19 20
25 11 6 20 17 20 25 0 8 5 15 11 15 12 0 69 54 69 66 0 4 10 17 23 29 12 12
47 50 77 85 30 35 67 75 83 89 15 14 27 31 27 38 0 7 7 13 15 13 8 0 15 6 15
14 0 8 9 17 19 21 11 3 23 15 26 26 4 10 12 19 20 19 7 0 15 9 18 20 3 11 12
20 21 20 9 0 16 4 16 10 0 5 18 27 40 49 22 22 40 42 40 44 0 3 26 33 58 66
104 109 142 153 142 161 0 5 8 15 18 22 10 7 21 21 25 31 3 9 13 17 21 17 7 0
16 9 19 20 3 11 12 20 20 20 8 0 17 9 20 20 3 11 12 20 21 20 9 0 16 8 16 20
0 13 7 20 20 20 11 0 20 7 20 15 0 8 9 19 20 25 11 6 20 17 20 25 0 8 7 15 16
15 9 0 18 9 21 20 3 10 14 22 24 25 10 4 19 12 19 18 0 7 8 20 18 28 9 9 37
39 62 68 25 29 70 79 101 111 31 32 59 66 62 74 4 9 13 16 21 16 7 0 16 9 19
20 3 11 12 20 20 20 8 0 17 9 20 20 3 11 12 20 21 20 9 0 16 7 16 15 0 8 9 19
20 25 11 6 20 17 20 25 0 7 9 17 20 20 11 3 20 12 20 20 0 8 9 17 20 20 11 3
20 11 20 17 0 6 17 28 38 49 20 20 64 68 97 105 33 37 69 77 81 88 11 12 23
29 27 39 3 9 13 17 21 17 7 0 16 9 19 20 3 11 12 20 21 20 9 0 16 6 16 13 0 6
18 28 40 47 22 19 40 41 40 48 0 6 7 12 16 12 9 0 18 9 21 20 3 10 13 22 23
25 10 3 20 12 22 19 3 12 118 139 260 287 31 33 59 66 62 74 3 8 12 15 21 15
8 0 15 7 15 15 0 8 9 19 20 25 11 6 20 17 20 25 0 8 7 15 16 15 9 0 18 9 21
20 3 10 14 22 24 25 10 4 19 12 19 19 0 7 17 29 38 49 53 51 122 126 122 133
0 3 35 40 78 83 43 42 81 85 85 94 3 9 13 17 22 17 8 0 15 7 15 15 0 8 9 19
20 25 11 6 20 17 20 24 0 8 9 16 20 19 11 3 20 12 20 21 0 9 7 16 15 16 8 0
15 4 15 9 0 5 28 40 63 76 34 37 66 74 71 83 5 9 33 39 63 67 29 28 53 57 53
63 0 6 9 13 19 17 11 3 23 15 26 26 4 10 13 19 21 19 8 0 14 9 14 20 0 13 7
20 19 20 10 0 30 -9 44 -20 14 -11 30 -20 36 -20 6 0 15 -9 21 -20 6 -11 17
-20 25 -20 7 0 20 -7 29 -15 8 -8 26 -19 40 -25 14 -5 26 -16 26 -25 0 -8 9
-15 20 -15 11 0 29 -9 40 -20 11 -11 24 -20 30 -20 5 0 15 -9 22 -20 7 -11 21
-20 30 -20 10 0 18 -4 18 -10 0 -5 15 -17 33 -26 17 -9 36 -23 40 -30 4 -8 13
-14 19 -14 5 0 23 -11 40 -25 16 -14 35 -25 43 -25 7 0 15 -7 19 -15 3 -8 12
-15 20 -15 9 0 20 -9 26 -20 6 -11 15 -20 20 -20 5 0 30 -15 56 -32 71 -50 87
-61 127 -86 20 -13 37 -28 37 -33 0 -5 8 -9 18 -9 10 0 29 -11 42 -25 13 -14
29 -25 37 -25 7 0 13 -5 13 -10 0 -6 11 -15 25 -20 14 -5 25 -13 25 -18 0 -4
16 -14 35 -22 19 -8 35 -18 35 -22 0 -5 11 -13 25 -18 14 -5 25 -14 25 -19 0
-5 13 -14 29 -21 16 -6 32 -18 35 -26 3 -8 15 -14 27 -14 12 0 23 -8 26 -20 3
-11 13 -20 23 -20 9 0 25 -9 35 -20 10 -11 24 -20 31 -20 8 0 19 -9 26 -20 7
-11 21 -20 30 -20 10 0 18 -6 18 -14 0 -8 14 -17 30 -21 17 -4 36 -15 43 -26
6 -10 17 -19 24 -19 7 0 17 -9 23 -20 6 -11 15 -20 21 -20 13 0 92 -52 102
-67 4 -7 14 -13 21 -13 7 0 21 -9 31 -20 10 -11 24 -20 32 -20 7 0 21 -9 30
-20 10 -11 23 -20 30 -20 7 0 13 -5 13 -11 0 -5 16 -17 35 -25 20 -8 38 -21
42 -29 3 -8 11 -15 19 -15 7 0 25 -11 40 -25 15 -14 33 -25 39 -25 7 0 15 -7
19 -15 3 -8 12 -15 20 -15 8 0 19 -6 23 -13 10 -15 89 -67 102 -67 6 0 14 -6
18 -14 7 -12 22 -22 99 -64 13 -7 24 -20 24 -28 0 -7 7 -14 14 -14 19 0 106
-58 106 -71 0 -5 8 -9 18 -9 11 0 27 -9 37 -20 10 -11 24 -20 31 -20 8 0 19
-9 26 -20 7 -11 19 -20 26 -20 7 0 15 -6 18 -14 3 -8 20 -20 37 -27 28 -12 40
-20 88 -64 9 -8 18 -15 22 -15 3 0 27 -15 53 -32 25 -18 53 -37 62 -43 9 -5
25 -18 36 -27 11 -10 27 -20 37 -23 9 -3 20 -12 23 -20 3 -8 12 -15 20 -15 8
0 27 -11 42 -25 15 -14 33 -25 40 -25 8 0 14 -5 14 -10 0 -6 8 -13 18 -17 9
-3 24 -12 32 -20 23 -21 90 -63 100 -63 5 0 14 -9 20 -20 6 -11 17 -20 24 -20
7 0 21 -9 31 -20 10 -11 26 -20 36 -20 10 0 21 -9 24 -20 3 -11 14 -20 23 -20
10 0 25 -9 35 -20 9 -11 24 -20 32 -20 8 0 20 -9 27 -20 7 -11 18 -20 25 -20
7 0 17 -9 23 -20 6 -11 20 -20 30 -20 11 0 28 -9 37 -20 10 -11 23 -20 31 -20
7 0 15 -7 18 -15 3 -8 16 -17 27 -21 21 -6 63 -36 98 -69 9 -8 21 -15 27 -15
6 0 17 -6 24 -13 14 -14 72 -56 99 -72 10 -5 38 -25 64 -42 25 -18 50 -33 56
-33 5 0 9 -4 9 -8 0 -12 88 -72 105 -72 8 0 15 -6 15 -14 0 -7 15 -19 33 -27
17 -7 36 -19 40 -26 4 -7 14 -13 22 -13 8 0 19 -9 25 -20 6 -11 17 -20 24 -20
7 0 23 -9 36 -20 13 -11 29 -20 36 -20 7 0 18 -9 24 -20 6 -11 17 -20 24 -20
7 0 21 -9 31 -20 10 -11 26 -20 36 -20 10 0 20 -8 23 -18 6 -17 17 -24 82 -56
17 -8 34 -22 37 -31 4 -8 13 -15 20 -15 8 0 22 -9 32 -20 10 -11 23 -20 30
-20 7 0 20 -9 30 -20 10 -11 24 -20 31 -20 7 0 18 -9 24 -20 6 -11 15 -20 20
-20 5 0 30 -15 56 -32 71 -50 87 -61 127 -86 20 -13 37 -28 37 -33 0 -5 7 -9
15 -9 7 0 18 -6 22 -13 4 -6 22 -19 38 -27 17 -8 34 -21 38 -27 4 -7 17 -13
27 -13 11 0 20 -7 20 -16 0 -8 14 -20 30 -25 17 -6 30 -15 30 -19 0 -4 14 -13
30 -19 17 -5 30 -14 30 -20 0 -10 25 -26 86 -55 17 -9 34 -22 37 -31 4 -8 13
-15 22 -15 8 0 15 -5 15 -11 0 -5 16 -17 35 -25 19 -8 35 -19 35 -24 0 -6 11
-15 25 -20 14 -5 25 -13 25 -18 0 -4 16 -14 35 -21 19 -7 35 -17 35 -22 0 -5
8 -12 18 -16 16 -6 25 -12 67 -50 11 -10 33 -24 48 -30 15 -7 33 -17 40 -23
57 -46 76 -60 86 -60 6 0 16 -9 23 -20 7 -11 21 -20 30 -20 10 0 18 -5 18 -10
0 -11 75 -49 98 -50 7 0 15 13 18 29 4 17 12 32 19 35 7 2 18 21 25 40 6 20
18 36 26 36 8 0 14 9 14 20 0 11 5 20 11 20 5 0 16 15 24 34 8 18 21 36 30 39
8 4 15 15 15 25 0 10 9 27 20 37 11 10 20 27 20 37 0 10 7 21 15 25 9 3 22 20
31 37 25 54 42 79 57 88 9 4 18 22 22 38 4 17 11 30 16 30 5 0 14 10 19 23 6
12 26 42 44 67 19 25 35 49 35 54 1 4 12 21 26 38 14 16 25 35 25 43 0 7 7 15
15 19 8 3 15 15 15 26 0 11 4 20 10 20 5 0 20 19 32 41 31 57 41 72 56 89 16
20 62 90 62 96 0 9 55 89 67 97 7 4 13 14 13 21 0 7 9 23 20 36 11 13 20 29
20 36 0 7 9 18 20 24 11 6 20 19 20 28 0 10 9 25 20 35 11 9 20 23 20 32 0 8
9 19 20 25 11 6 20 19 20 29 0 10 9 26 20 36 11 10 20 24 20 31 0 8 9 19 20
26 11 7 20 23 20 35 0 12 9 27 20 33 11 6 20 19 20 28 0 10 9 25 20 35 11 9
20 26 20 37 0 10 9 24 20 30 11 6 20 16 20 23 0 7 9 20 20 30 11 9 20 26 20
36 0 11 7 24 16 29 16 9 33 34 59 90 8 17 20 32 25 32 5 0 17 15 25 33 28 58
46 87 54 87 5 0 14 15 22 33 7 17 19 36 26 40 7 4 13 14 13 21 0 8 7 19 16 26
8 8 22 27 30 44 29 60 45 86 55 86 5 0 9 6 9 14 0 8 11 24 25 37 13 13 25 30
25 38 0 7 11 26 25 43 14 16 25 35 25 43 0 7 7 15 15 19 8 3 15 10 15 15 0 6
15 31 33 57 43 62 63 93 83 129 9 17 23 34 30 38 8 4 14 16 14 25 0 10 9 25
20 35 11 9 20 23 20 32 0 8 9 19 20 25 11 6 20 19 20 29 0 10 9 26 20 36 11
10 20 24 20 31 0 7 9 18 20 24 11 6 20 20 20 30 0 11 9 28 20 37 11 10 20 25
20 35 0 9 9 22 20 28 11 6 20 19 20 30 0 11 9 24 20 30 11 6 20 20 20 31 0 12
8 23 20 26 14 4 20 14 20 34 0 18 7 32 20 39 11 6 20 17 20 24 0 7 9 21 20 31
11 10 20 27 20 37 0 10 7 21 15 25 9 3 22 20 31 37 28 60 45 86 54 86 6 0 17
15 25 33 28 58 46 87 54 87 5 0 14 15 22 33 7 17 19 36 26 40 7 4 13 17 13 27
0 11 4 20 10 20 5 0 17 15 26 33 9 17 23 36 30 40 8 4 14 17 14 28 0 10 9 27
20 36 11 10 20 23 20 30 0 7 9 21 20 30 11 10 20 22 20 29 0 6 9 19 20 29 11
10 20 26 20 36 0 10 9 23 20 29 11 6 20 19 20 28 0 10 9 25 20 35 11 9 20 23
20 31 0 8 7 19 16 24 16 9 32 34 58 88 9 17 22 34 31 37 8 4 15 16 15 27 0 11
9 28 20 37 11 10 20 22 20 29 0 6 9 19 20 29 11 10 20 24 20 32 0 7 9 21 20
30 11 10 20 25 20 35 0 10 5 18 11 18 5 0 17 16 25 35 8 20 21 38 29 42 8 3
15 13 15 22 0 9 9 24 20 34 11 9 20 23 20 30 0 8 9 22 20 32 11 10 20 22 20
27 0 6 9 21 20 35 11 14 20 34 20 44 0 11 7 19 14 19 14 0 29 21 60 86 9 17
22 34 30 37 8 3 17 19 21 35 3 17 13 33 21 36 8 3 14 14 14 25 0 11 9 22 20
26 11 3 20 15 20 26 0 10 9 28 20 39 11 11 20 26 20 34 0 8 7 16 15 19 8 4 21
22 29 42 8 19 20 35 25 35 6 0 11 9 11 19 0 11 4 22 9 26 11 6 71 93 71 101 0
3 11 20 25 38 14 18 25 38 25 43 0 6 7 13 15 17 8 3 15 12 15 19 0 8 9 22 19
31 11 10 22 28 25 42 4 13 11 24 16 24 6 0 15 10 20 23 6 12 24 42 40 67 16
25 35 57 41 73 6 15 15 27 20 27 6 0 15 14 20 30 6 17 15 30 20 30 6 0 15 13
20 29 6 16 17 32 25 35 8 3 14 14 14 23 0 10 9 26 20 36 11 9 20 24 20 32 0 8
9 20 20 27 11 7 20 21 20 31 0 10 7 20 15 23 8 3 19 21 25 39 6 18 17 36 25
39 8 3 15 11 15 18 0 8 9 21 20 31 11 9 20 26 20 37 0 10 9 24 20 30 11 6 20
15 20 21 0 6 9 22 20 36 11 14 20 34 20 44 0 11 7 19 15 19 8 0 22 15 30 33
29 60 46 87 55 87 6 0 16 15 24 34 8 18 19 37 25 40 6 4 11 15 11 24 0 10 8
22 19 29 10 6 21 25 24 42 4 18 13 31 22 31 8 0 15 9 15 20 0 10 6 23 14 27 7
4 21 23 30 41 9 17 21 32 26 32 6 0 10 9 10 20 0 11 5 20 10 20 6 0 18 17 28
38 9 20 23 41 30 45 6 4 12 13 12 18 0 6 11 25 25 43 14 18 25 38 25 44 0 7 4
12 9 12 6 0 16 11 23 24 42 77 52 92 64 99 8 4 14 17 14 28 0 10 9 27 20 36
11 10 32 40 46 68 15 27 33 54 40 58 8 4 14 14 14 22 0 8 9 20 20 27 11 7 20
23 20 35 0 12 9 27 20 33 11 6 20 19 20 30 0 11 9 24 20 30 11 6 20 20 20 30
0 11 9 25 20 32 11 7 20 20 20 29 0 9 6 19 14 22 8 3 19 22 26 41 6 20 18 36
26 36 8 0 14 8 14 18 0 10 9 25 20 35 11 9 20 26 20 37 0 10 9 24 20 30 11 6
20 17 20 24 0 7 9 23 20 36 11 13 20 29 20 37 0 7 7 16 15 20 9 3 22 20 31 37
25 54 42 79 57 88 9 4 18 21 22 37 3 16 13 32 21 35 8 3 14 12 14 20 0 8 8 21
19 28 10 7 22 28 25 46 4 18 14 32 22 32 8 0 14 9 14 20 0 11 7 23 15 26 8 3
19 21 25 40 6 19 18 34 26 34 8 0 14 8 14 18 0 11 9 27 20 37 11 10 20 24 20
32 0 7 9 21 20 30 11 10 20 25 20 34 0 14 19 40 65 90 8 9 15 20 15 24 0 12
52 88 67 98 7 4 13 16 13 26 0 10 9 26 20 36 11 10 20 23 20 29 0 7 9 19 20
29 11 9 20 26 20 37 0 10 9 24 20 30 11 6 20 17 20 26 0 8 7 17 15 20 8 3 19
21 25 39 6 18 17 36 25 39 8 3 15 14 15 23 0 10 9 26 20 36 11 9 20 24 20 32
0 8 9 20 20 27 11 7 20 20 20 29 0 9 9 26 20 39 11 13 20 29 20 37 0 7 7 16
15 20 9 3 22 20 31 37 19 39 36 68 52 86 21 25 62 90 62 100 0 5 7 13 16 18
16 9 33 34 59 90 8 17 19 32 23 32 5 0 14 16 22 35 8 19 17 35 21 35 4 0 12
14 18 30 5 17 14 30 20 30 5 0 15 16 22 35 7 19 17 35 21 35 5 0 13 11 18 25
5 14 14 25 20 25 5 0 10 6 10 14 0 8 11 28 25 44 14 17 25 34 25 39 0 6 9 18
20 28 11 10 20 24 20 32 0 7 9 21 20 30 11 10 20 26 20 37 0 10 10 29 23 40
12 12 28 31 34 42 7 10 24 36 38 57 14 21 25 42 25 47 0 5 9 14 20 20 11 6 20
19 20 29 0 10 9 26 20 36 11 10 20 24 20 31 0 7 9 18 20 24 12 6 20 21 20 35
0 14 8 29 20 35 11 6 20 20 20 30 0 11 5 20 11 20 5 0 17 16 25 35 8 20 21 38
29 42 8 3 15 11 15 19 0 7 15 34 33 60 38 55 72 111 86 142 6 12 15 22 20 22
10 0 27 26 56 88 8 17 19 32 24 32 5 0 14 15 22 33 7 17 19 36 26 40 7 4 13
16 13 26 0 10 9 21 19 24 11 3 22 17 26 36 4 18 13 35 21 38 8 3 14 14 14 24
0 11 7 22 15 26 9 3 22 21 30 39 8 19 19 34 24 34 6 0 11 8 11 18 0 11 9 27
20 37 11 10 20 24 20 32 0 7 9 21 20 30 11 10 20 23 20 30 0 6 6 16 13 20 7 4
19 23 26 41 8 17 17 32 22 32 5 0 16 15 24 33 26 55 43 80 59 89 9 5 16 16 16
23 0 27 27 15 33 -14z m-10000 -2821 c-8 -31 -23 -34 -23 -6 0 16 6 26 14 26
9 0 12 -7 9 -20z m-3363 -90 c0 -5 -5 -10 -11 -10 -5 0 -7 5 -4 10 3 6 8 10
11 10 2 0 4 -4 4 -10z m730 -715 c10 -13 9 -15 -8 -15 -22 0 -36 13 -25 24 10
10 20 7 33 -9z"/>
<path d="M30098 51213 c7 -3 16 -2 19 1 4 3 -2 6 -13 5 -11 0 -14 -3 -6 -6z"/>
<path d="M30280 51210 l-45 -7 48 -1 c26 -1 47 3 47 8 0 6 -1 9 -2 8 -2 0 -23
-4 -48 -8z"/>
<path d="M29692 51199 c-14 -5 -14 -7 5 -17 33 -18 63 -15 63 6 0 18 -33 23
-68 11z"/>
<path d="M29840 51175 c0 -22 -4 -25 -40 -25 -29 0 -40 -4 -40 -15 0 -12 16
-15 80 -15 l80 0 0 40 0 40 -40 0 c-36 0 -40 -2 -40 -25z"/>
<path d="M29940 51191 c0 -6 15 -11 33 -11 17 0 27 -4 20 -8 -6 -4 28 -5 75
-3 89 3 101 6 88 18 -13 13 -216 17 -216 4z"/>
<path d="M29466 51155 c-4 -11 2 -15 24 -15 22 0 30 5 30 18 0 15 -2 15 -11 2
-8 -11 -12 -12 -16 -2 -6 16 -20 15 -27 -3z"/>
<path d="M30400 51159 c0 -5 5 -7 10 -4 6 3 10 8 10 11 0 2 -4 4 -10 4 -5 0
-10 -5 -10 -11z"/>
<path d="M30421 51145 l-24 -13 34 -6 c63 -9 98 2 83 26 -8 12 -66 8 -93 -7z"/>
<path d="M29578 51133 c7 -3 16 -2 19 1 4 3 -2 6 -13 5 -11 0 -14 -3 -6 -6z"/>
<path d="M30000 51095 c0 -22 4 -25 40 -25 28 0 40 -4 40 -14 0 -9 13 -2 35
18 19 19 35 36 35 40 0 3 -34 6 -75 6 -73 0 -75 -1 -75 -25z"/>
<path d="M29296 51065 c-19 -14 -18 -15 10 -16 63 -2 100 3 114 17 12 12 6 14
-45 14 -37 -1 -68 -6 -79 -15z"/>
<path d="M30683 51043 c9 -2 23 -2 30 0 6 3 -1 5 -18 5 -16 0 -22 -2 -12 -5z"/>
<path d="M28996 50905 c18 -14 18 -14 -8 -15 -22 0 -28 -5 -28 -21 0 -16 4
-19 18 -14 9 4 27 7 40 6 12 0 22 4 22 9 0 6 8 10 17 10 14 0 14 3 -5 20 -12
11 -33 20 -48 20 -27 0 -27 -1 -8 -15z"/>
<path d="M30880 50900 c0 -17 6 -20 43 -19 40 1 41 1 15 11 -16 5 -28 14 -28
19 0 5 -7 9 -15 9 -8 0 -15 -9 -15 -20z"/>
<path d="M29025 50840 c-18 -7 -18 -8 -2 -14 44 -15 47 -15 47 4 0 21 -12 24
-45 10z"/>
<path d="M28932 50788 c3 -7 18 -14 34 -16 28 -2 28 -2 10 13 -24 18 -49 20
-44 3z"/>
<path d="M29080 50780 c0 -13 7 -20 20 -20 13 0 20 7 20 20 0 13 -7 20 -20 20
-13 0 -20 -7 -20 -20z"/>
<path d="M30960 50790 c0 -5 12 -10 26 -10 14 0 23 -4 19 -10 -3 -5 3 -10 13
-10 11 0 22 -9 25 -20 6 -24 37 -27 37 -4 0 9 -9 18 -20 21 -11 3 -20 14 -20
24 0 15 -7 19 -40 19 -22 0 -40 -4 -40 -10z"/>
<path d="M31082 50783 c2 -10 10 -19 18 -19 8 -1 23 -2 33 -3 10 -1 17 -9 17
-22 0 -15 5 -20 22 -17 30 4 37 38 9 38 -11 0 -25 8 -30 18 -5 10 -23 19 -41
20 -25 2 -31 -1 -28 -15z"/>
<path d="M29015 50741 c-3 -5 -2 -12 3 -15 13 -8 46 0 50 12 4 14 -44 16 -53
3z"/>
<path d="M28668 50663 c4 -27 26 -53 44 -53 4 0 6 15 5 33 -2 23 -8 32 -20 31
-9 -1 -17 2 -17 7 0 5 -4 9 -9 9 -4 0 -6 -12 -3 -27z"/>
<path d="M31280 50659 c0 -5 9 -9 20 -9 11 0 20 2 20 4 0 2 -9 6 -20 9 -11 3
-20 1 -20 -4z"/>
<path d="M28764 50600 c1 -43 20 -54 30 -17 10 40 7 57 -13 57 -15 0 -18 -7
-17 -40z"/>
<path d="M28640 50585 c0 -9 6 -12 15 -9 8 4 15 10 15 15 0 5 -7 9 -15 9 -8 0
-15 -7 -15 -15z"/>
<path d="M31362 50559 c-1 -25 4 -42 13 -45 7 -3 16 -17 19 -30 9 -35 76 -60
76 -29 0 10 -7 15 -17 13 -13 -2 -17 3 -16 19 2 13 -5 26 -15 32 -10 5 -24 25
-32 45 -18 47 -28 46 -28 -5z"/>
<path d="M28600 50550 c0 -5 4 -10 9 -10 6 0 13 5 16 10 3 6 -1 10 -9 10 -9 0
-16 -4 -16 -10z"/>
<path d="M28720 50539 c0 -18 2 -19 15 -9 8 7 15 16 15 21 0 5 -7 9 -15 9 -9
0 -15 -9 -15 -21z"/>
<path d="M31450 50490 c0 -5 5 -10 11 -10 5 0 7 5 4 10 -3 6 -8 10 -11 10 -2
0 -4 -4 -4 -10z"/>
<path d="M28640 50464 c0 -14 3 -14 15 -4 8 7 15 14 15 16 0 2 -7 4 -15 4 -8
0 -15 -7 -15 -16z"/>
<path d="M28772 50468 c6 -18 28 -21 28 -4 0 9 -7 16 -16 16 -9 0 -14 -5 -12
-12z"/>
<path d="M28547 50420 c3 -11 7 -20 9 -20 2 0 4 9 4 20 0 11 -4 20 -9 20 -5 0
-7 -9 -4 -20z"/>
<path d="M31360 50425 c0 -8 2 -15 4 -15 2 0 11 -3 19 -6 12 -4 14 0 10 15 -6
24 -33 29 -33 6z"/>
<path d="M28700 50415 c-11 -13 -8 -15 15 -15 23 0 26 2 15 15 -7 8 -14 15
-15 15 -1 0 -8 -7 -15 -15z"/>
<path d="M31490 50414 c0 -14 3 -14 15 -4 8 7 15 14 15 16 0 2 -7 4 -15 4 -8
0 -15 -7 -15 -16z"/>
<path d="M28440 50355 c0 -8 5 -15 10 -15 6 0 10 7 10 15 0 8 -4 15 -10 15 -5
0 -10 -7 -10 -15z"/>
<path d="M31406 50338 c-19 -27 -20 -39 -4 -73 21 -46 38 -31 38 35 0 64 -9
74 -34 38z"/>
<path d="M31527 50330 c-3 -11 -1 -23 4 -26 5 -3 9 6 9 20 0 31 -6 34 -13 6z"/>
<path d="M28466 50324 c-8 -22 -6 -75 4 -99 6 -14 9 1 9 48 1 68 -2 80 -13 51z"/>
<path d="M31600 50290 c0 -5 5 -10 11 -10 5 0 7 5 4 10 -3 6 -8 10 -11 10 -2
0 -4 -4 -4 -10z"/>
<path d="M31520 50230 c0 -5 9 -10 20 -10 11 0 20 5 20 10 0 6 -9 10 -20 10
-11 0 -20 -4 -20 -10z"/>
<path d="M28367 50199 c-13 -46 -8 -69 13 -69 15 0 20 7 20 28 0 16 -6 36 -13
47 -13 17 -14 17 -20 -6z"/>
<path d="M31560 50175 c0 -19 2 -35 4 -35 2 0 11 -3 20 -6 11 -4 16 -1 16 10
0 9 8 16 20 16 11 0 20 7 20 15 0 18 -26 20 -33 3 -3 -7 -6 -3 -6 10 -1 15 -7
22 -21 22 -16 0 -20 -7 -20 -35z"/>
<path d="M28330 50142 c-11 -12 -15 -40 -15 -99 0 -69 -2 -78 -12 -60 -11 20
-12 18 -13 -20 0 -37 3 -43 21 -43 20 0 21 3 14 80 -7 77 -6 80 14 80 21 0 29
24 12 34 -5 3 -7 15 -4 26 6 24 3 25 -17 2z"/>
<path d="M31684 50097 c4 -53 11 -66 27 -50 13 13 2 76 -11 68 -5 -3 -11 3
-14 12 -3 10 -4 -4 -2 -30z"/>
<path d="M28240 49800 c0 -22 5 -40 10 -40 6 0 10 18 10 40 0 22 -4 40 -10 40
-5 0 -10 -18 -10 -40z"/>
<path d="M31740 49826 c0 -8 5 -18 10 -21 6 -3 10 3 10 14 0 12 -4 21 -10 21
-5 0 -10 -6 -10 -14z"/>
<path d="M28213 49790 c-6 -15 -7 -26 -1 -29 15 -5 20 5 16 31 l-5 23 -10 -25z"/>
<path d="M31680 49711 c0 -49 0 -49 25 -38 20 10 25 19 25 50 0 33 -3 37 -25
37 -23 0 -25 -3 -25 -49z"/>
<path d="M31842 49545 c0 -16 2 -22 5 -12 2 9 2 23 0 30 -3 6 -5 -1 -5 -18z"/>
<path d="M31860 46760 c0 -1520 2 -2761 5 -2758 7 6 7 5510 0 5516 -3 3 -5
-1238 -5 -2758z"/>
<path d="M31842 49470 c0 -19 2 -27 5 -17 2 9 2 25 0 35 -3 9 -5 1 -5 -18z"/>
<path d="M28133 49425 c0 -38 2 -53 4 -32 2 20 2 52 0 70 -2 17 -4 1 -4 -38z"/>
<path d="M28133 49240 c0 -25 2 -35 4 -22 2 12 2 32 0 45 -2 12 -4 2 -4 -23z"/>
<path d="M31845 46680 c0 -1433 1 -2019 2 -1302 2 716 2 1888 0 2605 -1 716
-2 130 -2 -1303z"/>
<path d="M28132 49145 c0 -16 2 -22 5 -12 2 9 2 23 0 30 -3 6 -5 -1 -5 -18z"/>
<path d="M28130 44041 c0 -22 -4 -41 -8 -43 -4 -1 -2 -14 5 -28 12 -23 13 -19
13 43 0 37 -2 67 -5 67 -3 0 -5 -18 -5 -39z"/>
<path d="M28152 43975 c0 -16 2 -22 5 -12 2 9 2 23 0 30 -3 6 -5 -1 -5 -18z"/>
<path d="M31800 43983 c0 -29 12 -63 21 -63 5 0 9 18 9 40 0 29 -4 40 -15 40
-8 0 -15 -8 -15 -17z"/>
<path d="M28132 43870 c0 -19 2 -27 5 -17 2 9 2 25 0 35 -3 9 -5 1 -5 -18z"/>
<path d="M31760 43823 c1 -36 2 -37 15 -18 8 11 19 25 25 32 15 18 12 23 -15
23 -22 0 -25 -4 -25 -37z"/>
<path d="M31883 43775 c0 -27 2 -38 4 -22 2 15 2 37 0 50 -2 12 -4 0 -4 -28z"/>
<path d="M28100 43793 c0 -34 12 -63 26 -63 8 0 14 -10 14 -25 0 -14 4 -25 9
-25 6 0 9 18 8 40 -1 22 -5 40 -9 40 -4 0 -8 -4 -8 -10 0 -5 -4 -10 -10 -10
-5 0 -10 13 -10 29 0 17 -4 33 -10 36 -5 3 -10 -2 -10 -12z"/>
<path d="M31680 43723 c0 -24 5 -43 10 -43 13 0 13 50 0 70 -7 11 -10 4 -10
-27z"/>
<path d="M31843 43720 c0 -22 3 -40 8 -40 5 0 9 18 9 40 0 52 -15 52 -17 0z"/>
<path d="M27888 43683 c6 -2 18 -2 25 0 6 3 1 5 -13 5 -14 0 -19 -2 -12 -5z"/>
<path d="M38080 43544 c0 -22 -4 -23 -77 -27 -43 -2 -29 -3 31 -1 131 3 169
24 82 44 -33 7 -36 6 -36 -16z"/>
<path d="M21840 43550 c0 -5 -10 -10 -22 -11 -22 0 -22 -1 -3 -9 15 -7 10 -9
-23 -9 -39 -1 -43 -3 -40 -23 2 -13 6 -22 11 -20 4 1 21 2 38 2 22 0 32 5 36
20 4 16 14 20 44 20 32 0 39 3 39 20 0 17 -7 20 -40 20 -22 0 -40 -4 -40 -10z"/>
<path d="M22053 43535 c0 -8 6 -15 14 -15 7 0 13 7 13 15 0 8 -6 15 -13 15 -8
0 -14 -7 -14 -15z"/>
<path d="M21685 43510 c3 -5 10 -10 16 -10 5 0 9 5 9 10 0 6 -7 10 -16 10 -8
0 -12 -4 -9 -10z"/>
<path d="M38160 43500 c0 -16 7 -20 38 -20 20 0 44 5 52 10 13 9 13 11 0 20
-8 5 -32 10 -52 10 -31 0 -38 -4 -38 -20z"/>
<path d="M21920 43450 c0 -5 14 -10 31 -10 17 0 28 4 24 10 -3 6 -17 10 -31
10 -13 0 -24 -4 -24 -10z"/>
<path d="M38080 43450 c0 -5 7 -10 16 -10 8 0 12 5 9 10 -3 6 -10 10 -16 10
-5 0 -9 -4 -9 -10z"/>
<path d="M21608 43443 c6 -2 18 -2 25 0 6 3 1 5 -13 5 -14 0 -19 -2 -12 -5z"/>
<path d="M21660 43431 c0 -5 7 -11 14 -14 10 -4 13 -1 9 9 -6 15 -23 19 -23 5z"/>
<path d="M38400 43410 c0 -5 -5 -10 -11 -10 -11 0 -39 -24 -39 -34 0 -3 11 -6
25 -6 17 0 25 5 25 18 0 10 5 23 12 30 9 9 9 12 0 12 -7 0 -12 -4 -12 -10z"/>
<path d="M21463 43392 c-31 -4 -29 -20 2 -28 30 -7 35 -5 26 16 -3 9 -16 14
-28 12z"/>
<path d="M38466 43391 c-11 -4 -15 -10 -10 -14 14 -8 54 3 54 14 0 11 -17 11
-44 0z"/>
<path d="M37870 43370 c0 -5 11 -10 25 -10 14 0 25 5 25 10 0 6 -11 10 -25 10
-14 0 -25 -4 -25 -10z"/>
<path d="M21431 43324 c0 -11 3 -14 6 -6 3 7 2 16 -1 19 -3 4 -6 -2 -5 -13z"/>
<path d="M21360 43296 c0 -18 4 -24 15 -20 10 4 16 -3 20 -23 3 -15 10 -36 16
-45 5 -10 9 -25 9 -33 0 -8 4 -15 9 -15 6 0 9 24 7 53 -2 52 -19 97 -36 97 -4
0 -15 3 -24 6 -12 5 -16 0 -16 -20z"/>
<path d="M21310 43290 c0 -5 5 -10 11 -10 5 0 7 5 4 10 -3 6 -8 10 -11 10 -2
0 -4 -4 -4 -10z"/>
<path d="M38520 43260 c6 -11 17 -20 25 -20 8 0 15 9 15 20 0 15 -7 20 -25 20
-23 0 -24 -2 -15 -20z"/>
<path d="M38726 43233 c3 -10 10 -28 16 -39 8 -16 6 -28 -7 -48 -16 -24 -16
-26 -1 -20 9 3 16 12 16 20 0 22 36 16 53 -8 12 -18 18 -20 27 -11 15 14 5 33
-16 33 -12 0 -14 7 -9 33 6 26 5 30 -6 20 -18 -18 -46 -16 -53 3 -8 22 -8 22
12 27 10 3 7 5 -10 6 -22 1 -26 -3 -22 -16z"/>
<path d="M21280 43220 c0 -11 -7 -20 -15 -20 -17 0 -20 -16 -6 -24 14 -9 41 4
41 19 0 7 5 15 12 17 15 5 1 28 -18 28 -8 0 -14 -9 -14 -20z"/>
<path d="M38600 43185 c0 -8 9 -19 21 -26 13 -7 19 -17 16 -29 -3 -13 0 -17 9
-13 9 3 14 20 14 44 0 37 -2 39 -30 39 -20 0 -30 -5 -30 -15z"/>
<path d="M21165 43140 c-3 -5 3 -10 15 -10 12 0 18 5 15 10 -3 6 -10 10 -15
10 -5 0 -12 -4 -15 -10z"/>
<path d="M38429 43113 c18 -9 40 -31 47 -47 l14 -31 -3 45 -2 45 -45 3 -45 2
34 -17z"/>
<path d="M21420 43101 c0 -11 5 -23 10 -26 6 -4 10 5 10 19 0 14 -4 26 -10 26
-5 0 -10 -9 -10 -19z"/>
<path d="M38842 43103 c2 -10 10 -18 18 -18 8 0 16 8 18 18 2 12 -3 17 -18 17
-15 0 -20 -5 -18 -17z"/>
<path d="M38885 43060 c-3 -5 1 -10 10 -10 9 0 13 5 10 10 -3 6 -8 10 -10 10
-2 0 -7 -4 -10 -10z"/>
<path d="M20918 42815 c-3 -13 1 -33 8 -44 8 -11 11 -26 8 -35 -3 -9 -1 -16 5
-16 13 0 13 1 16 60 1 40 -7 59 -26 60 -4 0 -9 -11 -11 -25z"/>
<path d="M21032 42802 c-7 -5 -6 -13 4 -27 13 -17 16 -18 24 -5 5 8 10 18 10
21 0 11 -26 18 -38 11z"/>
<path d="M39127 42723 c-12 -12 -7 -41 8 -47 11 -4 15 2 15 24 0 29 -9 38 -23
23z"/>
<path d="M39200 42679 c0 -5 5 -7 10 -4 6 3 10 8 10 11 0 2 -4 4 -10 4 -5 0
-10 -5 -10 -11z"/>
<path d="M39170 42600 c0 -22 5 -40 10 -40 6 0 10 18 10 40 0 22 -4 40 -10 40
-5 0 -10 -18 -10 -40z"/>
<path d="M39220 42505 c0 -19 -21 -57 -37 -68 -16 -10 -17 -37 -3 -37 33 0 76
99 50 115 -5 3 -10 -1 -10 -10z"/>
<path d="M39120 42496 c0 -9 5 -16 10 -16 6 0 10 4 10 9 0 6 -4 13 -10 16 -5
3 -10 -1 -10 -9z"/>
<path d="M20720 42490 c0 -5 5 -10 10 -10 6 0 10 -8 10 -17 1 -16 2 -16 15 1
21 28 19 36 -10 36 -14 0 -25 -4 -25 -10z"/>
<path d="M39281 42464 c0 -11 3 -14 6 -6 3 7 2 16 -1 19 -3 4 -6 -2 -5 -13z"/>
<path d="M20691 42422 c-1 -13 -5 -20 -11 -17 -6 4 -10 -12 -9 -42 0 -36 3
-43 9 -28 6 15 9 4 11 -40 2 -52 3 -54 6 -17 2 23 9 42 14 42 11 0 6 43 -10
95 -8 26 -9 27 -10 7z"/>
<path d="M20776 42329 c-10 -50 -7 -84 9 -105 13 -17 14 -12 15 59 0 78 -12
103 -24 46z"/>
<path d="M20638 42188 c-2 -36 1 -58 11 -70 23 -27 31 -12 31 58 0 56 -2 64
-19 64 -16 0 -20 -9 -23 -52z"/>
<path d="M20720 42121 c0 -23 5 -41 10 -41 6 0 10 15 10 34 0 19 -4 38 -10 41
-6 4 -10 -10 -10 -34z"/>
<path d="M20751 42094 c0 -11 3 -14 6 -6 3 7 2 16 -1 19 -3 4 -6 -2 -5 -13z"/>
<path d="M39382 42030 c0 -19 2 -27 5 -17 2 9 2 25 0 35 -3 9 -5 1 -5 -18z"/>
<path d="M20684 41859 c3 -34 7 -71 7 -83 2 -26 17 67 18 112 1 23 -3 32 -15
32 -15 0 -16 -9 -10 -61z"/>
<path d="M20780 41901 c0 -11 5 -23 10 -26 6 -4 10 5 10 19 0 14 -4 26 -10 26
-5 0 -10 -9 -10 -19z"/>
<path d="M39360 41874 c0 -8 5 -12 10 -9 6 4 8 11 5 16 -9 14 -15 11 -15 -7z"/>
<path d="M39380 41760 c0 -49 4 -80 11 -80 6 0 9 24 7 63 -1 34 2 70 6 80 6
12 4 17 -8 17 -13 0 -16 -13 -16 -80z"/>
<path d="M20720 41340 c0 -11 5 -20 10 -20 6 0 10 9 10 20 0 11 -4 20 -10 20
-5 0 -10 -9 -10 -20z"/>
<path d="M39280 41314 c0 -14 3 -14 15 -4 8 7 15 14 15 16 0 2 -7 4 -15 4 -8
0 -15 -7 -15 -16z"/>
<path d="M39187 41213 c-11 -10 -8 -93 3 -93 6 0 10 23 10 50 0 51 -1 55 -13
43z"/>
<path d="M20720 41141 c0 -16 6 -21 26 -21 33 0 30 33 -4 38 -17 3 -22 -2 -22
-17z"/>
<path d="M39208 41127 c-2 -7 -1 -28 2 -47 6 -34 13 -30 23 15 5 23 -18 53
-25 32z"/>
<path d="M21070 41100 c6 -11 19 -24 30 -30 18 -10 20 -7 20 20 0 27 -3 30
-30 30 -27 0 -30 -2 -20 -20z"/>
<path d="M39080 40999 c0 -33 3 -40 18 -37 12 2 18 14 20 41 3 32 0 37 -17 37
-18 0 -21 -6 -21 -41z"/>
<path d="M39175 41030 c3 -5 10 -10 16 -10 5 0 9 5 9 10 0 6 -7 10 -16 10 -8
0 -12 -4 -9 -10z"/>
<path d="M39127 40953 c-9 -8 -9 -56 -1 -77 11 -29 31 6 26 47 -4 36 -11 44
-25 30z"/>
<path d="M39105 40870 c3 -5 8 -10 11 -10 2 0 4 5 4 10 0 6 -5 10 -11 10 -5 0
-7 -4 -4 -10z"/>
<path d="M39080 40835 c0 -8 -9 -23 -20 -32 -24 -21 -26 -33 -5 -33 8 0 15 7
15 15 0 9 9 15 24 15 22 0 42 31 28 44 -12 12 -42 5 -42 -9z"/>
<path d="M20925 40769 c-9 -14 -2 -20 14 -10 8 6 9 11 3 15 -6 3 -14 1 -17 -5z"/>
<path d="M20956 40737 c-6 -24 3 -49 16 -41 6 4 5 10 -3 15 -10 6 -8 9 8 9 16
0 20 5 16 18 -6 24 -30 24 -37 -1z"/>
<path d="M38720 40723 c0 -34 1 -36 16 -21 10 10 14 23 9 37 -10 34 -25 24
-25 -16z"/>
<path d="M21029 40687 c-15 -11 -39 -49 -39 -61 0 -3 5 -6 11 -6 5 0 7 5 3 11
-4 7 6 10 29 8 20 -2 40 1 44 5 4 5 2 6 -4 2 -9 -5 -13 2 -13 23 0 33 -6 37
-31 18z"/>
<path d="M38880 40643 c0 -10 7 -27 15 -37 14 -18 15 -18 21 -2 4 11 1 22 -7
27 -10 6 -4 9 19 9 17 0 32 5 32 10 0 6 -18 10 -40 10 -32 0 -40 -4 -40 -17z"/>
<path d="M21080 40602 c0 -4 10 -16 22 -26 19 -16 20 -17 15 -1 -4 9 -7 21 -7
26 0 5 -7 9 -15 9 -8 0 -15 -3 -15 -8z"/>
<path d="M38720 40518 c0 -24 5 -61 12 -83 10 -37 12 -38 17 -15 4 14 17 27
31 31 26 6 24 8 -25 24 -10 3 -15 18 -15 45 0 22 -4 40 -10 40 -5 0 -10 -19
-10 -42z"/>
<path d="M21330 40471 c0 -15 15 -21 38 -14 32 8 27 23 -8 23 -16 0 -30 -4
-30 -9z"/>
<path d="M38400 40459 c0 -24 23 -21 28 4 2 10 -3 17 -12 17 -10 0 -16 -9 -16
-21z"/>
<path d="M38480 40410 c0 -5 9 -10 21 -10 11 0 17 5 14 10 -3 6 -13 10 -21 10
-8 0 -14 -4 -14 -10z"/>
<path d="M38560 40410 c0 -5 9 -10 20 -10 11 0 20 5 20 10 0 6 -9 10 -20 10
-11 0 -20 -4 -20 -10z"/>
<path d="M21277 40393 c-16 -15 -6 -30 17 -26 16 3 23 10 19 19 -5 15 -25 19
-36 7z"/>
<path d="M38640 40383 c0 -13 5 -23 10 -23 13 0 13 11 0 30 -8 12 -10 11 -10
-7z"/>
<path d="M38675 40380 c-3 -5 1 -10 9 -10 9 0 16 5 16 10 0 6 -4 10 -9 10 -6
0 -13 -4 -16 -10z"/>
<path d="M21330 40339 c0 -14 5 -19 14 -16 7 3 26 -1 41 -9 24 -12 26 -12 21
2 -3 9 -6 22 -6 30 0 9 -11 14 -35 14 -29 0 -35 -4 -35 -21z"/>
<path d="M38506 40308 c3 -4 9 -8 15 -8 5 0 9 4 9 8 0 5 -7 9 -15 9 -8 0 -12
-4 -9 -9z"/>
<path d="M38480 40270 c0 -5 5 -10 10 -10 6 0 10 5 10 10 0 6 -4 10 -10 10 -5
0 -10 -4 -10 -10z"/>
<path d="M21446 40242 c6 -4 14 -15 17 -26 4 -11 13 -16 22 -12 8 3 15 1 15
-4 0 -6 4 -10 8 -10 7 0 8 25 3 49 -1 2 -7 -2 -15 -8 -10 -9 -15 -8 -20 4 -3
8 -13 15 -23 15 -11 0 -14 -3 -7 -8z"/>
<path d="M38420 40230 c0 -5 5 -10 10 -10 6 0 10 5 10 10 0 6 -4 10 -10 10 -5
0 -10 -4 -10 -10z"/>
<path d="M21663 40153 c-38 -7 -26 -23 17 -23 40 0 53 13 24 24 -9 3 -16 5
-17 5 -1 -1 -12 -4 -24 -6z"/>
<path d="M21980 40150 c0 -13 41 -23 76 -17 25 3 24 4 -8 6 -20 0 -40 6 -43
11 -8 13 -25 13 -25 0z"/>
<path d="M31680 40115 l0 -45 43 1 c23 1 34 3 25 6 -13 3 -18 15 -18 44 0 35
-3 39 -25 39 -23 0 -25 -4 -25 -45z"/>
<path d="M38080 40150 c0 -5 4 -10 9 -10 6 0 13 5 16 10 3 6 -1 10 -9 10 -9 0
-16 -4 -16 -10z"/>
<path d="M38270 40140 c0 -5 4 -10 9 -10 6 0 13 5 16 10 3 6 -1 10 -9 10 -9 0
-16 -4 -16 -10z"/>
<path d="M21762 40096 c2 -15 9 -20 23 -18 20 4 61 9 105 15 14 1 28 -2 32 -7
4 -6 10 -7 15 -2 15 15 -30 28 -104 30 -70 2 -74 1 -71 -18z"/>
<path d="M31920 40106 c0 -7 14 -16 31 -20 46 -9 49 -8 49 14 0 17 -7 20 -40
20 -27 0 -40 -4 -40 -14z"/>
<path d="M27992 40098 c-8 -10 3 -13 49 -13 41 0 59 4 59 13 0 8 -16 12 -49
12 -27 0 -53 -6 -59 -12z"/>
<path d="M38144 40099 c-7 -11 12 -29 31 -29 19 0 38 18 31 29 -4 6 -18 11
-31 11 -13 0 -27 -5 -31 -11z"/>
<path d="M21986 40069 c-26 -16 -3 -29 52 -29 39 0 42 -2 42 -26 0 -20 4 -25
16 -20 9 3 27 6 40 6 17 0 24 6 24 20 0 17 -7 20 -40 20 -27 0 -40 4 -40 14 0
7 -14 16 -31 20 -40 8 -40 8 -63 -5z"/>
<path d="M37600 40075 c0 -14 66 -35 110 -35 43 0 50 3 50 20 0 18 -7 20 -80
20 -44 0 -80 -2 -80 -5z"/>
<path d="M27840 40060 c0 -5 7 -10 15 -10 8 0 15 5 15 10 0 6 -7 10 -15 10 -8
0 -15 -4 -15 -10z"/>
<path d="M28113 40009 c-7 -7 -51 -13 -101 -14 -92 -2 -127 -11 -101 -25 8 -4
51 -5 97 -1 55 4 90 3 104 -5 31 -17 48 -7 48 27 0 31 -25 40 -47 18z"/>
<path d="M37760 40010 c0 -5 9 -10 20 -10 11 0 20 5 20 10 0 6 -9 10 -20 10
-11 0 -20 -4 -20 -10z"/>
<path d="M21990 39989 c0 -5 5 -7 10 -4 6 3 10 8 10 11 0 2 -4 4 -10 4 -5 0
-10 -5 -10 -11z"/>
<path d="M37483 39993 c-73 -7 -47 -23 37 -23 47 0 80 4 80 10 0 6 -8 10 -17
10 -10 0 -27 2 -38 4 -11 1 -39 1 -62 -1z"/>
<path d="M22093 39973 c9 -2 25 -2 35 0 9 3 1 5 -18 5 -19 0 -27 -2 -17 -5z"/>
<path d="M37858 39973 c12 -2 32 -2 45 0 12 2 2 4 -23 4 -25 0 -35 -2 -22 -4z"/>
<path d="M31760 39893 c0 -22 2 -24 13 -12 6 8 19 20 27 27 12 10 10 12 -13
12 -23 0 -27 -4 -27 -27z"/>
<path d="M28153 39800 c0 -25 2 -35 4 -22 2 12 2 32 0 45 -2 12 -4 2 -4 -23z"/>
<path d="M31845 37120 c0 -1499 1 -2112 2 -1362 2 749 2 1975 0 2725 -1 749
-2 136 -2 -1363z"/>
<path d="M31763 34360 c0 -25 2 -35 4 -22 2 12 2 32 0 45 -2 12 -4 2 -4 -23z"/>
<path d="M31842 34123 c-1 -24 -7 -43 -13 -43 -5 0 -7 -5 -3 -11 12 -20 26 18
21 59 l-4 37 -1 -42z"/>
<path d="M31761 33824 c0 -11 3 -14 6 -6 3 7 2 16 -1 19 -3 4 -6 -2 -5 -13z"/>
<path d="M28238 33697 c-4 -18 -1 -24 9 -20 15 6 16 13 4 31 -6 10 -10 7 -13
-11z"/>
<path d="M31733 33700 c-3 -11 -12 -20 -19 -20 -18 0 -18 -18 0 -36 33 -32 57
-5 48 54 -4 27 -22 29 -29 2z"/>
<path d="M28440 33640 c0 -33 3 -40 20 -40 17 0 20 7 20 40 0 33 -3 40 -20 40
-17 0 -20 -7 -20 -40z"/>
<path d="M28290 33636 c0 -33 2 -37 15 -26 19 15 19 21 0 46 -13 18 -14 16
-15 -20z"/>
<path d="M28385 33610 c-3 -5 -1 -10 4 -10 6 0 11 5 11 10 0 6 -2 10 -4 10 -3
0 -8 -4 -11 -10z"/>
<path d="M28316 33496 c-7 -30 2 -56 20 -56 10 0 14 12 14 40 0 45 -24 56 -34
16z"/>
<path d="M31681 33494 c0 -11 3 -14 6 -6 3 7 2 16 -1 19 -3 4 -6 -2 -5 -13z"/>
<path d="M28418 33443 c12 -2 32 -2 45 0 12 2 2 4 -23 4 -25 0 -35 -2 -22 -4z"/>
<path d="M31412 33428 c6 -18 28 -21 28 -4 0 9 -7 16 -16 16 -9 0 -14 -5 -12
-12z"/>
<path d="M31646 33425 c4 -8 10 -15 15 -15 5 0 9 7 9 15 0 8 -7 15 -15 15 -9
0 -12 -6 -9 -15z"/>
<path d="M31480 33375 c0 -8 2 -15 4 -15 2 0 11 -3 20 -6 12 -4 16 0 16 15 0
14 -6 21 -20 21 -11 0 -20 -7 -20 -15z"/>
<path d="M31360 33370 c0 -5 5 -10 11 -10 5 0 7 5 4 10 -3 6 -8 10 -11 10 -2
0 -4 -4 -4 -10z"/>
<path d="M31609 33378 c0 -2 -2 -19 -4 -38 -2 -19 -1 -27 1 -17 3 9 14 17 25
17 22 0 24 11 7 28 -11 11 -27 16 -29 10z"/>
<path d="M28420 33345 c0 -8 5 -15 10 -15 6 0 10 -10 10 -22 0 -13 5 -30 10
-38 9 -13 11 -13 20 0 15 23 12 38 -10 50 -11 6 -20 17 -20 25 0 8 -4 15 -10
15 -5 0 -10 -7 -10 -15z"/>
<path d="M31418 33306 c-20 -20 -21 -25 -8 -46 14 -22 32 1 28 36 -3 26 -4 27
-20 10z"/>
<path d="M31538 33310 c-10 -23 -6 -52 5 -41 5 5 7 19 5 32 -3 17 -6 20 -10 9z"/>
<path d="M31448 33233 c7 -3 16 -2 19 1 4 3 -2 6 -13 5 -11 0 -14 -3 -6 -6z"/>
<path d="M31376 33212 c-2 -4 -1 -14 5 -22 7 -12 9 -10 9 8 0 23 -5 28 -14 14z"/>
<path d="M31440 33211 c0 -5 6 -11 13 -14 9 -3 9 -9 0 -25 -9 -16 -9 -24 3
-38 13 -18 14 -17 8 9 -4 17 -2 27 5 27 6 0 11 7 11 15 0 8 9 15 20 15 11 0
20 5 20 10 0 6 -18 10 -40 10 -22 0 -40 -4 -40 -9z"/>
<path d="M28465 33160 c-3 -5 -1 -10 4 -10 6 0 11 5 11 10 0 6 -2 10 -4 10 -3
0 -8 -4 -11 -10z"/>
<path d="M31399 33123 c-6 -16 -17 -35 -25 -44 -11 -12 -12 -22 -5 -40 5 -13
11 -21 12 -16 1 4 3 10 4 15 2 4 6 17 10 30 7 21 38 31 48 15 2 -5 2 -1 -1 7
-3 8 -4 25 -3 38 1 32 -27 28 -40 -5z"/>
<path d="M28640 33105 c0 -9 9 -15 23 -14 12 0 16 3 9 6 -6 2 -10 9 -6 14 3 5
-2 9 -10 9 -9 0 -16 -7 -16 -15z"/>
<path d="M31040 33080 c0 -22 5 -40 10 -40 6 0 10 18 10 40 0 22 -4 40 -10 40
-5 0 -10 -18 -10 -40z"/>
<path d="M31071 33104 c0 -11 3 -14 6 -6 3 7 2 16 -1 19 -3 4 -6 -2 -5 -13z"/>
<path d="M28600 33066 c0 -21 21 -31 30 -15 5 7 6 17 4 21 -9 14 -34 9 -34 -6z"/>
<path d="M28718 33052 c-4 -15 -1 -18 18 -14 28 5 31 17 8 26 -21 8 -21 8 -26
-12z"/>
<path d="M28646 33024 c-4 -11 -1 -14 11 -12 9 2 18 9 21 16 6 18 -25 15 -32
-4z"/>
<path d="M28772 33028 c6 -18 28 -21 28 -4 0 9 -7 16 -16 16 -9 0 -14 -5 -12
-12z"/>
<path d="M31330 33030 c0 -5 5 -10 10 -10 6 0 10 5 10 10 0 6 -4 10 -10 10 -5
0 -10 -4 -10 -10z"/>
<path d="M31092 33008 c-34 -34 8 -75 55 -54 36 17 28 60 -12 64 -17 2 -36 -3
-43 -10z"/>
<path d="M28684 32989 c-3 -6 -2 -15 4 -21 13 -13 32 -2 32 18 0 16 -26 19
-36 3z"/>
<path d="M31293 32965 c-7 -8 -9 -16 -4 -19 5 -3 12 1 15 10 8 22 4 25 -11 9z"/>
<path d="M28727 32953 c-10 -10 -8 -33 3 -33 5 0 14 9 20 20 8 15 8 20 -3 20
-8 0 -17 -3 -20 -7z"/>
<path d="M31175 32901 c-3 -11 -12 -22 -20 -25 -26 -9 -16 -26 14 -26 16 0 32
-6 34 -12 4 -9 6 -10 6 -1 1 6 -6 19 -15 27 -8 9 -11 16 -5 16 6 0 11 9 11 20
0 25 -17 26 -25 1z"/>
<path d="M31073 32812 c-33 -17 -42 -36 -22 -47 6 -4 13 2 16 14 3 14 13 21
29 21 15 0 24 6 24 15 0 19 -6 18 -47 -3z"/>
<path d="M29120 32785 c0 -17 16 -20 25 -5 4 6 11 8 16 5 5 -4 9 -1 9 4 0 6
-11 11 -25 11 -16 0 -25 -6 -25 -15z"/>
<path d="M30771 32778 c0 -13 3 -18 5 -11 9 22 31 3 26 -23 -4 -20 -1 -24 22
-24 20 0 24 4 19 18 -7 21 -48 62 -63 62 -5 0 -10 -10 -9 -22z"/>
<path d="M28925 32751 c-8 -14 22 -28 70 -33 22 -3 32 -3 23 -1 -10 2 -18 13
-18 24 0 15 -7 19 -34 19 -19 0 -37 -4 -41 -9z"/>
<path d="M29200 32740 c0 -5 18 -10 40 -10 22 0 40 5 40 10 0 6 -18 10 -40 10
-22 0 -40 -4 -40 -10z"/>
<path d="M29018 32693 c7 -3 16 -2 19 1 4 3 -2 6 -13 5 -11 0 -14 -3 -6 -6z"/>
<path d="M29198 32623 c-4 -16 1 -18 39 -14 44 3 56 14 27 25 -30 12 -62 6
-66 -11z"/>
<path d="M29400 32620 c6 -11 17 -20 25 -20 8 0 15 9 15 20 0 15 -7 20 -25 20
-23 0 -24 -2 -15 -20z"/>
<path d="M30730 32623 c0 -10 -3 -28 -6 -40 -5 -17 -2 -23 10 -23 10 0 16 9
16 25 0 14 5 25 11 25 8 0 8 5 -1 15 -17 20 -30 19 -30 -2z"/>
<path d="M30785 32620 c-3 -5 -1 -10 4 -10 6 0 11 5 11 10 0 6 -2 10 -4 10 -3
0 -8 -4 -11 -10z"/>
<path d="M29390 32595 c7 -9 15 -13 17 -11 7 7 -7 26 -19 26 -6 0 -6 -6 2 -15z"/>
<path d="M29346 32583 c-12 -12 -5 -23 14 -23 11 0 20 4 20 9 0 11 -26 22 -34
14z"/>
<path d="M29320 32550 c0 -5 10 -10 23 -10 18 0 19 2 7 10 -19 13 -30 13 -30
0z"/>
<path d="M30648 32533 c6 -2 18 -2 25 0 6 3 1 5 -13 5 -14 0 -19 -2 -12 -5z"/>
<path d="M29407 32513 c-14 -13 -6 -33 13 -33 13 0 20 7 20 20 0 19 -20 27
-33 13z"/>
<path d="M29455 32470 c3 -5 11 -10 16 -10 6 0 7 5 4 10 -3 6 -11 10 -16 10
-6 0 -7 -4 -4 -10z"/>
<path d="M29840 32470 c0 -5 4 -10 9 -10 6 0 13 5 16 10 3 6 -1 10 -9 10 -9 0
-16 -4 -16 -10z"/>
<path d="M30195 32460 c3 -5 33 -10 65 -10 32 0 61 -5 63 -10 3 -6 4 -5 3 2
-3 15 -42 25 -99 27 -23 1 -36 -3 -32 -9z"/>
<path d="M30408 32453 c6 -2 18 -2 25 0 6 3 1 5 -13 5 -14 0 -19 -2 -12 -5z"/>
<path d="M30043 32433 c-29 -3 -43 -9 -43 -19 0 -10 14 -14 56 -14 46 0 55 3
52 17 -4 19 -9 21 -65 16z"/>
</g>
</svg>
